<?xml version="1.0" encoding="UTF-8"?>
<svg width="230px" height="245px" viewBox="0 0 230 245" version="1.1" xmlns="http://www.w3.org/2000/svg" xmlns:xlink="http://www.w3.org/1999/xlink">
    <!-- Generator: Sketch 53 (72520) - https://sketchapp.com -->
    <title>Group 2</title>
    <desc>Created with Sketch.</desc>
    <g id="Page-1" stroke="none" stroke-width="1" fill="none" fill-rule="evenodd">
        <g id="logo" fill-rule="nonzero">
            <g id="Group-2">
                <g id="Blue_circle" transform="translate(18.000000, 0.000000)" fill="#415381">
                    <circle id="Oval" cx="95.8" cy="95.6" r="94.7"></circle>
                </g>
                <g id="Globe_background" transform="translate(65.000000, 47.000000)" fill="#919FD1" stroke="#FFFFFF" stroke-width="1.5">
                    <circle id="Oval" cx="49" cy="48.6" r="48.2"></circle>
                </g>
                <g id="Globe" transform="translate(73.000000, 47.000000)">
                    <path d="M68.2,81.9 L71.1,85.2 C71.1,85.2 71.2,85.2 71.1,85.2 C75.9,81.2 80,76.3 83.1,70.4 L80.5,68.5 L78.3,71.2 L74.9,71.4 L74.7,69.2 L72.4,69.5 L70.6,72.5 L64.4,74 L64.2,75.2 L61.5,80.6 L63.4,82.7 L68.1,81.8 L68.2,81.9 Z" id="Path" fill="#259490"></path>
                    <polygon id="Path" fill="#259490" points="10 30.3 3.6 24.9 4.6 34.3"></polygon>
                    <g id="Group">
                        <polygon id="Path" fill="#259490" points="0.4 43.7 0.8 48.2 5.3 47.6 10.7 43.2 19.2 45.9 20.9 51.2 15.8 52.5 7.4 53.3 3.4 60.2 6.3 70.5 11.7 72.4 16 72.9 18.6 79.4 22.3 80 23.4 84.1 26.1 84.9 27.7 89.3 29.4 89.8 28.1 79 35.3 62.3 31.4 61.7 28.2 52 32.7 52 35.9 56.3 39.7 52.8 44.1 53.2 47.2 57.8 49 54.6 52.8 54.3 54.6 55.6 58.8 59.4 60.6 58.4 59.1 55.5 58.8 53 61 49.9 63.8 49 64.9 47.7 65.4 40.9 68.8 38.8 69.5 33.7 72.5 32.4 76.4 38.5 77.1 38.1 77.5 32.7 80.9 30 79.9 27.3 76.5 26.8 75.2 23.5 72.4 24.2 70.3 21.8 69 22.2 65.7 24 62.4 19.6 56.9 21.4 55.5 17.8 57.7 11.1 56.3 9.8 52.4 11.6 47.1 14.8 46.9 17.2 41.3 16.5 36.7 16.8 30.1 23.2 25.3 24 23.3 19.6 24.9 17.5 23.4 15.9 18.5 17.8 12.5 22.2 12.5 26.9 14 26.8 15.3 23.8 17.7 25.8 14.8 36.3 8.3 35.3 4.9 38.3 5.3 41.8"></polygon>
                        <path d="M28.9,95.5 C32.4,97.1 46.9,97.5 52.6,95.2 L49.9,92.4 L46.6,93.7 L43.6,91.8 L38.8,94.1 L35.4,92.2 L28.9,95.5 L28.9,95.5 Z M51.6,1.8 C45.1,-0.2 35.1,-0.4 26.4,2.4 L33.1,6.8 L37.5,5.5 L40.4,7.9 L44.9,5.3 L49.3,5.8 L51.6,1.8 Z" id="Shape" fill="#FEFEFE"></path>
                    </g>
                </g>
                <g id="Layer_1" transform="translate(0.000000, 201.000000)" fill="#FFFFFF">
                    <g id="Group">
                        <path d="M19.2,22.7 C19.2,26.4 18.4,29.3 16.7,31.5 C15.1,33.7 12.9,34.8 10.1,34.8 C6.8,34.8 4.3,33.6 2.6,31.1 L2.5,34.4 L0,34.4 L0,0.6 L2.6,0.6 L2.6,14 C4.3,11.4 6.7,10.1 10,10.1 C12.8,10.1 15,11.2 16.7,13.3 C18.3,15.4 19.1,18.4 19.1,22.3 L19.1,22.7 L19.2,22.7 Z M16.6,22.2 C16.6,19.1 16,16.6 14.8,14.9 C13.6,13.2 11.9,12.3 9.7,12.3 C8,12.3 6.6,12.7 5.4,13.5 C4.2,14.3 3.3,15.5 2.7,17.1 L2.7,28 C4,31 6.3,32.5 9.7,32.5 C11.9,32.5 13.6,31.6 14.8,29.9 C16,28.2 16.6,25.6 16.6,22.2 Z" id="Shape"></path>
                        <path d="M36,12.8 C35.4,12.7 34.9,12.6 34.2,12.6 C32.6,12.6 31.2,13.1 30,14 C28.9,14.9 28.1,16.2 27.6,18 L27.6,34.3 L25,34.3 L25,10.5 L27.6,10.5 L27.6,14.3 C29,11.5 31.2,10.1 34.3,10.1 C35,10.1 35.6,10.2 36,10.4 L36,12.8 Z" id="Path"></path>
                        <path d="M40,3.7 C40,3.2 40.2,2.8 40.5,2.4 C40.8,2 41.3,1.9 41.8,1.9 C42.3,1.9 42.8,2.1 43.1,2.4 C43.4,2.7 43.6,3.2 43.6,3.7 C43.6,4.2 43.4,4.6 43.1,4.9 C42.8,5.2 42.3,5.4 41.8,5.4 C41.3,5.4 40.8,5.2 40.5,4.9 C40.2,4.6 40,4.2 40,3.7 Z M43.1,34.3 L40.5,34.3 L40.5,10.5 L43.1,10.5 L43.1,34.3 Z" id="Shape"></path>
                        <path d="M49.2,22.2 C49.2,18.5 50,15.5 51.7,13.4 C53.3,11.2 55.6,10.1 58.4,10.1 C61.6,10.1 64.1,11.4 65.8,14 L65.9,10.6 L68.4,10.6 L68.4,33.9 C68.4,37 67.5,39.4 65.8,41.2 C64.1,43 61.8,43.9 58.8,43.9 C57.1,43.9 55.6,43.5 54.1,42.8 C52.6,42.1 51.4,41.1 50.6,39.8 L52.1,38.2 C54,40.5 56.2,41.6 58.7,41.6 C60.9,41.6 62.6,41 63.8,39.7 C65,38.4 65.7,36.6 65.7,34.3 L65.7,31.3 C64,33.6 61.6,34.8 58.3,34.8 C55.5,34.8 53.3,33.7 51.7,31.5 C50.1,29.3 49.2,26.3 49.2,22.6 L49.2,22.2 Z M51.9,22.7 C51.9,25.7 52.5,28.1 53.7,29.9 C54.9,31.7 56.6,32.5 58.8,32.5 C62,32.5 64.3,31 65.7,28.1 L65.7,17 C65.1,15.5 64.2,14.3 63,13.5 C61.8,12.7 60.5,12.3 58.8,12.3 C56.6,12.3 54.9,13.2 53.6,14.9 C52.5,16.7 51.9,19.3 51.9,22.7 Z" id="Shape"></path>
                        <path d="M77.8,14.6 C78.7,13.2 79.8,12.1 81.1,11.3 C82.4,10.5 83.9,10.1 85.5,10.1 C88,10.1 89.9,10.8 91.2,12.3 C92.5,13.8 93.1,15.9 93.1,18.8 L93.1,34.4 L90.5,34.4 L90.5,18.8 C90.5,16.7 90,15.1 89.1,14.1 C88.2,13.1 86.8,12.5 84.8,12.5 C83.2,12.5 81.7,13 80.5,14 C79.2,15 78.3,16.4 77.7,18.1 L77.7,34.4 L75.1,34.4 L75.1,0.6 L77.7,0.6 L77.7,14.6 L77.8,14.6 Z" id="Path"></path>
                        <path d="M104,4.5 L104,10.6 L108.9,10.6 L108.9,12.8 L104,12.8 L104,28.7 C104,30 104.2,31 104.7,31.6 C105.2,32.2 106,32.6 107.1,32.6 C107.5,32.6 108.2,32.5 109.2,32.4 L109.3,34.5 C108.6,34.7 107.7,34.9 106.5,34.9 C104.7,34.9 103.4,34.4 102.6,33.3 C101.8,32.3 101.4,30.7 101.4,28.7 L101.4,12.8 L97,12.8 L97,10.6 L101.4,10.6 L101.4,4.5 L104,4.5 L104,4.5 Z" id="Path"></path>
                        <polygon id="Path" points="131 28.9 131.4 30.9 131.9 28.7 137.6 10.5 139.8 10.5 145.4 28.5 146 31 146.5 28.7 151.4 10.5 154.1 10.5 147.2 34.3 145 34.3 138.9 15.4 138.6 14.1 138.3 15.4 132.3 34.2 130.1 34.2 123.2 10.4 125.9 10.4"></polygon>
                        <path d="M157.8,22.1 C157.8,19.8 158.2,17.8 159.1,15.9 C160,14.1 161.2,12.6 162.9,11.6 C164.5,10.6 166.4,10.1 168.4,10.1 C171.6,10.1 174.1,11.2 176.1,13.4 C178.1,15.6 179,18.6 179,22.2 L179,22.7 C179,25 178.6,27.1 177.7,28.9 C176.8,30.7 175.6,32.2 174,33.2 C172.4,34.2 170.5,34.7 168.5,34.7 C165.4,34.7 162.8,33.6 160.8,31.4 C158.8,29.2 157.8,26.2 157.8,22.6 L157.8,22.1 L157.8,22.1 Z M160.4,22.8 C160.4,25.6 161.1,28 162.6,29.8 C164.1,31.6 166,32.5 168.4,32.5 C170.8,32.5 172.7,31.6 174.2,29.8 C175.7,28 176.4,25.6 176.4,22.6 L176.4,22.1 C176.4,20.3 176.1,18.6 175.4,17.1 C174.7,15.6 173.8,14.4 172.6,13.6 C171.4,12.8 170,12.4 168.4,12.4 C166.1,12.4 164.1,13.3 162.7,15.2 C161.2,17 160.5,19.4 160.5,22.4 L160.5,22.8 L160.4,22.8 Z" id="Shape"></path>
                        <path d="M195.4,12.8 C194.8,12.7 194.2,12.6 193.6,12.6 C192,12.6 190.6,13.1 189.4,14 C188.3,14.9 187.5,16.2 187,18 L187,34.3 L184.4,34.3 L184.4,10.5 L187,10.5 L187,14.3 C188.4,11.5 190.6,10.1 193.7,10.1 C194.4,10.1 195,10.2 195.4,10.4 L195.4,12.8 Z" id="Path"></path>
                        <polygon id="Path" points="202.5 34.3 199.9 34.3 199.9 0.5 202.5 0.5"></polygon>
                        <path d="M208.6,22.2 C208.6,18.5 209.4,15.6 211.1,13.4 C212.7,11.2 215,10.1 217.8,10.1 C221,10.1 223.5,11.4 225.1,13.9 L225.1,0.6 L227.7,0.6 L227.7,34.4 L225.2,34.4 L225.1,31.2 C223.4,33.6 220.9,34.8 217.7,34.8 C215,34.8 212.8,33.7 211.1,31.5 C209.4,29.3 208.6,26.3 208.6,22.6 L208.6,22.2 Z M211.3,22.7 C211.3,25.7 211.9,28.1 213.1,29.9 C214.3,31.7 216,32.5 218.2,32.5 C221.4,32.5 223.7,31.1 225.1,28.2 L225.1,17 C223.7,13.9 221.5,12.4 218.2,12.4 C216,12.4 214.3,13.3 213,15 C211.9,16.7 211.3,19.3 211.3,22.7 Z" id="Shape"></path>
                    </g>
                </g>
                <g id="Guardianship" transform="translate(62.000000, 142.000000)">
                    <g id="Group">
                        <g id="Path">
                            <path d="M34,15.3 C34,15.3 33.5,15.2 33.4,15.1 C33.2,15.1 33.3,14.7 33.6,14.8 C33.9,14.9 34.2,14.9 34.2,14.9 L34,15.3 Z" fill="#FFFFFF"></path>
                            <path d="M34.2,16.1 C34.2,16.4 34.4,16.6 34.7,16.7 C35,16.7 35.4,16.6 35.8,16.5 C36.2,16.3 37.3,14 36.8,13.7 C36.6,13.6 36.1,13.5 35.9,13.4 C35.2,13.2 35.1,13.5 34.8,14 C34.6,14.3 34.3,15.6 34.2,16.1 Z" fill="#FFFFFF"></path>
                            <path d="M36.9,15.5 C37.7,15.5 37.4,16.2 38.1,16.1 C38.3,16.1 38.6,16.1 38.8,16.3 C39.2,16.9 39.8,16.6 40.2,17.3 C40.3,17.5 40.8,17.6 40.8,17.6 C40.9,17.5 41,17.3 41.1,17.1 C41.7,16.3 41.6,15.6 42.2,14.7 C42.2,14.7 42.1,14.6 41.8,14.6 C41.4,14.4 41.2,14.6 40.8,14.4 C40.7,14.3 40.5,14.4 40.4,14.4 L40.2,14.4 C39.8,14.4 39.6,14.1 39.3,13.9 C39,13.7 38.5,14.1 38.1,13.9 L38,13.8 L37.7,13.6 C37.3,13.4 37.5,13.2 37.1,13.4 C37.6,14 36.9,15.5 36.9,15.5 Z" fill="#FFFFFF"></path>
                            <path d="M35.2,15.1 C34.9,15 35.3,14.2 35.5,14.3 C35.7,14.4 35.5,15.2 35.2,15.1 Z" fill="#415381"></path>
                            <path d="M32.7,17.5 L36.1,18.7 C38.8,20.2 40.7,19.5 43.9,18.2 L45.1,20 C44.1,20.7 38.2,21.8 36.3,20.8 C36,25.5 35,30.6 33.9,34.9 C28.6,34.3 26.6,34.6 24.8,31.5 C27.7,28.7 30.5,26 31.1,23.6 C31.8,22.5 29.6,21 32,19 C30,19.7 27.6,21.8 25.1,24.2 L24,22.7 C26.9,20.5 29.5,18.3 31.3,17.6 C31.6,17.4 32.1,17.4 32.7,17.5 Z" fill="#919FD1"></path>
                            <polygon fill="#415381" points="33.7 19.8 35.1 18.5 33.8 18"></polygon>
                            <path d="M32.7,26.4 C32.6,26.4 32.5,26.2 32.4,26.1 C32.4,26 32.5,25.8 32.6,25.8 C32.8,25.8 32.9,25.8 32.9,26 C33,26.1 32.8,26.4 32.7,26.4 Z" fill="#415381"></path>
                            <path d="M33.2,24.7 C33.1,24.7 33,24.5 32.9,24.4 C32.9,24.3 33,24.1 33.1,24.1 C33.2,24.1 33.4,24.1 33.4,24.3 C33.4,24.4 33.3,24.7 33.2,24.7 Z" fill="#415381"></path>
                            <path d="M33.3,23 C33.2,23 33.1,22.8 33,22.7 C33,22.6 33.2,22.4 33.2,22.4 C33.2,22.4 33.5,22.4 33.5,22.6 C33.6,22.7 33.4,23 33.3,23 Z" fill="#415381"></path>
                            <path d="M26.2,33.6 C26.6,34 27.3,34.3 27.9,34.5 L27,35.7 L25.6,40.2 L24.7,39.8 L25.7,35.2 L26.2,33.6 Z" fill="#FFFFFF"></path>
                            <polygon fill="#FFFFFF" points="30.3 34.7 32.3 34.9 31.3 37.9 29.8 41.6 28.9 41.3 30 37.7"></polygon>
                            <path d="M25.2,19.3 C25.2,19.6 25.4,19.8 25.7,19.9 C26,19.9 26.4,19.8 26.8,19.7 C27.2,19.5 28.3,17.2 27.8,16.9 C27.6,16.8 27.1,16.7 26.9,16.6 C26.2,16.4 26.1,16.7 25.8,17.2 C25.7,17.5 25.3,18.8 25.2,19.3 Z" fill="#FFFFFF"></path>
                            <path d="M26.7,18.3 C26.4,18.2 26.8,17.4 27,17.5 C27.3,17.6 27,18.4 26.7,18.3 Z" fill="#415381"></path>
                            <path d="M27.5,18.9 L28.1,19.2 C28.1,19.2 28.2,19.3 28.3,19.1 C28.4,18.9 28.3,18.9 28.3,18.9 L27.7,18.6 L27.5,18.9 Z" fill="#FFFFFF"></path>
                            <path d="M20.5,16.6 L24.1,19.7 L26.9,21 C28.6,21.5 30.2,21.8 31.8,22 L31.7,24 L26.5,22.1 C25.9,23.7 25.5,26 25,28.4 C23.5,27.7 22,27.2 20.4,26.8 C21.7,24.8 22.7,22.7 23.4,20.6 C22.4,19.1 20.7,19.4 19.6,18.2 L20.5,16.6 Z" fill="#FFFFFF"></path>
                            <path d="M21.1,27 C19.4,29.8 17.6,32.9 15.8,36.4 C16.6,36.7 17.4,37 18.1,37.2 C19.2,34.2 20.7,30.9 22.4,27.4 L21.1,27 Z" fill="#FFFFFF"></path>
                            <path d="M23,27.7 C22,31 20.8,34.4 19.5,37.8 C20.2,38.1 20.9,38.3 21.8,38.6 C22.8,35 23.6,31.5 24.3,28.1 L23,27.7 Z" fill="#FFFFFF"></path>
                            <polygon fill="#415381" points="25.1 20.9 25.2 21.3 25.6 21.1 25.5 20.6"></polygon>
                            <path d="M25,21.7 C24.3,23.5 23.6,25.2 22.8,26.2 C23,26.6 23.3,26.8 23.8,26.6 L25,21.7 Z" fill="#415381"></path>
                            <path d="M24.2,11.3 L24.8,11.6 C24.8,11.6 24.9,11.7 25,11.5 C25.1,11.3 25,11.3 25,11.3 L24.4,11 L24.2,11.3 Z" fill="#FFFFFF"></path>
                            <path d="M22.9,7.4 L21.4,6 C21.4,6 21.2,5.9 21.1,6 C21,6.2 21.1,6.3 21.1,6.3 L22.7,7.6 C22.7,7.6 22.8,7.7 22.9,7.6 C23,7.5 22.9,7.4 22.9,7.4 Z" fill="#FFFFFF"></path>
                            <path d="M22.1,8.2 L20.4,7 C20.4,7 20.2,6.9 20.1,7.1 C20,7.3 20.2,7.4 20.2,7.4 L22,8.5 C22,8.5 22.1,8.6 22.2,8.5 C22.3,8.4 22.1,8.3 22.1,8.2 L22.1,8.2 Z" fill="#FFFFFF"></path>
                            <path d="M21.6,9.1 L19.8,8.2 C19.8,8.2 19.6,8.2 19.5,8.3 C19.4,8.5 19.6,8.6 19.6,8.6 L21.5,9.4 C21.5,9.4 21.7,9.4 21.7,9.3 C21.8,9.2 21.7,9.1 21.6,9.1 L21.6,9.1 Z" fill="#FFFFFF"></path>
                            <path d="M24,8.1 C24.7,8.5 24.6,9.3 24.4,9.8 C24.4,9.8 24.3,10.1 24.1,10.4 C23.9,10.8 23.4,11.7 22.9,12 C22.7,12.1 22.5,12.2 22.1,12 C21.3,11.6 21.9,9.9 22.1,9.3 C22.6,8.3 23.1,7.6 24,8.1 L24,8.1 Z" fill="#FFFFFF"></path>
                            <path d="M23.5,9.3 L23.3,9.8 C23.3,9.8 23.2,10 23.4,10.1 C23.6,10.2 23.7,10 23.7,10 L23.9,9.5 C23.9,9.5 24,9.3 23.8,9.2 C23.6,9.1 23.5,9.2 23.5,9.3 L23.5,9.3 Z" fill="#415381"></path>
                            <path d="M23.3,13.7 L25.2,20.5 L23.2,21.5 L22.3,15.5 C21.1,17.4 20.9,19 19.9,21.7 C18.9,21.2 16.3,20.1 14.4,19.6 C16.1,16.8 18,14.7 18.5,13.2 C17.5,10.7 15.8,7.9 14.5,6.7 L16.9,5.9 L19.7,11.7 C20.8,12.9 21.7,13.2 23.3,13.7 Z" fill="#919FD1"></path>
                            <path d="M14.5,20.1 C16.4,20.7 17.7,21.1 19.5,21.9 C18.5,23.5 17.4,25.9 16.3,28.5 L13.4,35.4 C12.6,35.1 11.6,34.7 11,34.5 C13.2,30.1 16,25.2 16.7,23.3 C17.1,22.2 16.4,21.8 15.6,22.7 L12.4,26.5 C11.6,28.1 11.4,31.7 10.8,34.5 C10.1,34.2 9.1,33.8 8.4,33.6 C9,30.5 9.7,27.6 10.5,25.5 L14.5,20.1 Z" fill="#919FD1"></path>
                            <path d="M18.5,18 C18.4,18 18.3,17.8 18.3,17.6 C18.3,17.5 18.5,17.3 18.6,17.4 C18.8,17.4 18.9,17.5 18.8,17.7 C18.8,17.8 18.6,18 18.5,18 Z" fill="#415381"></path>
                            <path d="M19.4,16.5 C19.3,16.5 19.2,16.3 19.2,16.1 C19.2,16 19.4,15.8 19.5,15.9 C19.6,16 19.8,16 19.7,16.2 C19.8,16.3 19.6,16.5 19.4,16.5 Z" fill="#415381"></path>
                            <path d="M20.1,14.9 C20,14.9 19.9,14.7 19.9,14.5 C19.9,14.4 20.2,14.3 20.2,14.3 C20.2,14.3 20.5,14.4 20.4,14.6 C20.4,14.7 20.2,14.9 20.1,14.9 Z" fill="#415381"></path>
                        </g>
                        <path d="M33.1,0 C26.7,2 18.3,4.2 9.2,6.5 L10,8.3 C15.4,6.2 24.1,3.5 33.4,0.8 L33.1,0 Z" id="Path" fill="#FFFFFF"></path>
                        <path d="M10.2,8.8 C7.4,17.1 4.6,24.9 1.9,32 L3.8,32.9 C6.2,25.9 8.7,17.8 11.3,9.1 L10.2,8.8 Z" id="Path" fill="#FFFFFF"></path>
                        <polygon id="Path" fill="#FFFFFF" points="34.2 0 47.9 20.8 46.5 21.8 33.5 0.5"></polygon>
                        <path d="M45.5,21.7 C41.5,29.7 37.9,37.3 34.7,44.5 L36.4,45.4 C39.7,37.1 43,29.2 46.3,22 L45.5,21.7 Z" id="Path" fill="#FFFFFF"></path>
                        <path d="M4.3,32.3 L4,33 C14.1,36.4 24.2,40.2 34.4,44.3 L34.6,43.8 C24.3,39.8 14.2,35.9 4.3,32.3 Z" id="Path" fill="#FFFFFF"></path>
                    </g>
                </g>
                <g id="Boy" transform="translate(33.000000, 11.000000)">
                    <g id="Group">
                        <path d="M2.5,12.7 L1.6,13.6 C1.6,13.6 1.5,13.8 1.2,13.5 C0.9,13.2 1.1,13.1 1.1,13.1 L2,12.2 L2.5,12.7 Z" id="Path" fill="#FFFFFF"></path>
                        <path d="M2.6,5 L4.5,1.6 C4.5,1.6 4.8,1.3 5,1.5 C5.3,1.7 5.1,2 5.1,2 L3,5.3 C3,5.3 2.8,5.5 2.6,5.4 C2.4,5.3 2.6,5 2.6,5 Z" id="Path" fill="#FFFFFF"></path>
                        <path d="M27.9,7.3 L35.6,9.2 C36.9,9.5 39,10.4 39,10.4 C39.4,10.1 40.8,9.3 41.2,9.3 C41.6,9.3 42.6,9.6 43,9.9 C42.9,10.4 42.3,12.5 42,13.2 C41.8,13.7 41.1,13.5 40.8,13.5 C40.3,13.5 39,12.8 38.6,12.5 L37,12.5 C36.7,12.5 35.9,12.3 35,12.1 C33.3,11.6 30.4,10.9 28.8,10.7 C28.5,10.7 28.2,10.6 27.9,10.6 L27.9,7.3 Z" id="Path" fill="#FEFEFE"></path>
                        <path d="M27,7 L26.9,10.6 C23.8,10.8 20.8,12.3 18.8,14.6 L26.5,21.9 L17.3,31.8 L7,24.4 L6.5,25.1 L11.4,28.6 L5.6,31.1 C5.4,29.9 3.8,20.8 4.4,19.7 C4.5,19.4 5.3,18.6 6.2,17.6 C8.4,15.2 12.9,9.9 15.2,8.5 C15.9,8.1 16.7,7.7 17.7,7.3 C20.7,6 23.8,4.9 27,4.2 L27,7 L27,7 Z" id="Path" fill="#919FD1"></path>
                        <path d="M12.1,20.6 C12.6,21.1 13.4,23.3 13.8,23.9 C14.3,24.8 15.1,25.5 15.7,26.3 C15.9,26.6 17.2,26.6 17.4,26.1 C18.3,24.4 21.9,22.4 23.2,20.8 C24.6,19.2 25.2,18.6 27.1,17.5 L25.5,14 L25,14.6 C24,15.7 22.9,16.7 21.8,17.6 C19.8,19.5 17.8,21.2 16.1,23.5 L14.6,22.2 C13.7,21.4 12.9,20.6 11.9,19.9 C11.9,20.2 12,20.4 12.1,20.6 L12.1,20.6 Z" id="Path" fill="#FEFEFE"></path>
                        <path d="M46.7,2 C47.2,0.7 48,0.2 49.4,0.6 C50.8,0.9 59.6,3.3 60.6,5 C60.9,5.5 60.8,6.3 60.5,7.4 C59.9,9.8 56.3,22.4 55.9,23.5 C55.5,25 53.9,25.4 52,24.7 C50.3,24.1 43.3,22.4 42.5,21.7 L42.3,21.5 L42.1,21.3 C41.2,20.4 41.5,19 41.9,17.9 C42.6,15.5 46.6,2.7 46.6,2.7 C46.7,2.5 46.7,2.2 46.7,2 L46.7,2 Z" id="Path" fill="#919FD1"></path>
                        <path d="M4.5,6.1 L6.8,3 C6.8,3 7.1,2.7 7.4,3 C7.7,3.3 7.5,3.6 7.5,3.6 L4.9,6.5 C4.9,6.5 4.7,6.7 4.5,6.6 C4.3,6.4 4.5,6.1 4.5,6.1 L4.5,6.1 Z" id="Path" fill="#FFFFFF"></path>
                        <path d="M5.9,7.4 L8.7,4.8 C8.7,4.8 9,4.6 9.3,4.9 C9.6,5.2 9.2,5.5 9.2,5.5 L6.2,8 C6.2,8 5.9,8.1 5.8,8 C5.6,7.7 5.8,7.4 5.9,7.4 L5.9,7.4 Z" id="Path" fill="#FFFFFF"></path>
                        <path d="M27.9,67.4 L33.1,63.6 L31.8,61.6 C31,60.4 30.1,58.9 29.9,58.4 C29.4,57.4 26.6,52.4 25.6,51.2 C24.5,49.8 24.7,47.2 24.5,45.5 C24.3,44.2 24.2,39.7 24.2,37.4 C24.3,35 25.2,33 26.5,32.1 C27.9,31.1 30.1,32.7 31.5,32.9 C32.9,33.2 34.2,33.7 35.5,34.2 C40.3,35.9 40.2,36 44.9,34.7 C45.4,34.6 45.9,34.4 46.3,34.4 C48,34.3 53.1,32.5 55,31.9 C56.6,31.4 58.4,31 60.1,30.6 L55.5,25.6 C55,25.9 54.6,26.1 54.1,26.3 L53.2,26.6 C52.5,26.8 52,27.1 51.6,27.3 C50.5,28 45,29.4 43.6,29.8 C40.8,30.7 39.8,29.7 37.9,28.4 C37.8,28.3 37.6,28.2 37.4,28.1 C36.1,27.4 28.5,23.6 26.9,22.8 L17.7,32.4 C17.7,33.1 17.8,35.6 17.9,36.7 C17.9,37.4 18.1,39 18.4,41 C19.2,46.1 19.4,49.2 21.3,54.1 C23,58.5 25.1,62.8 27.5,66.9 C27.9,67.1 27.9,67.3 27.9,67.4 L27.9,67.4 Z" id="Path" fill="#FEFEFE"></path>
                        <polygon id="Path" fill="#FEFEFE" points="9.2 18 10.3 18.1 10.3 16.8 8.8 16.5"></polygon>
                        <path d="M6.3,46.3 C7.2,46.3 8.8,46.3 9.1,46.2 C9.2,46.2 10,45.9 10.7,43.1 C11.4,40.3 12.6,37.5 12.8,36.5 C13,35.5 13.4,33.2 13.4,32.5 C13.4,32 12.5,29.6 12.3,29.1 L9.1,30.4 C9.2,30.6 9.4,30.9 9.6,31.3 C9.8,31.7 10.2,32.4 10.2,32.9 C10.2,33.5 8.9,41.8 8.7,42.3 C8.5,42.7 8,43 7.7,43.2 L7.1,43.5 C6.4,44 6.1,45 6.1,45.7 L6.3,46.3 L6.3,46.3 Z" id="Path" fill="#FEFEFE"></path>
                        <path d="M2.6,9 L3.2,9.8 C3.2,9.8 3.5,10.1 3.2,10.4 C2.9,10.6 2.6,10.3 2.6,10.3 L2,9.5 C2,9.5 1.7,9.2 2,9 C2.3,8.8 2.6,9 2.6,9 L2.6,9 Z" id="Path" fill="#FEFEFE"></path>
                        <path d="M47.4,4.9 C47.3,5.1 47.3,5.4 47.1,5.6 C46.9,6.2 43.6,16.7 43,18.7 C42.9,19.2 42.5,20.3 43,20.8 L43.4,21.1 C43.9,21.5 50.2,23.1 51.4,23.5 C52.9,24.1 53.5,23.6 53.7,23 C54,22.1 57.2,11.2 57.7,9.1 C58.1,7.4 58,7.7 57,6.9 C56.2,6.3 50.5,4.5 48.7,4.1 C47.9,4 47.6,4.1 47.4,4.9 L47.4,4.9 Z" id="Path" fill="#919FD1"></path>
                        <path d="M1.1,7 C0.1,8.1 0.7,9.4 1.4,10.2 C1.4,10.2 1.7,10.7 2.2,11.1 C2.8,11.8 4.2,13.1 5.2,13.3 C5.6,13.4 6,13.4 6.6,12.8 C7.8,11.6 5.9,9 5.1,8.1 C3.7,6.5 2,5.9 1.1,7 L1.1,7 Z" id="Path" fill="#FFFFFF"></path>
                        <path d="M2.6,8.6 L3.2,9.4 C3.2,9.4 3.5,9.7 3.2,10 C2.9,10.2 2.7,10 2.6,9.9 L2,9.1 C2,9.1 1.7,8.8 2,8.6 C2.3,8.3 2.5,8.5 2.6,8.6 L2.6,8.6 Z" id="Path" fill="#415381"></path>
                    </g>
                </g>
                <g id="College" transform="translate(21.000000, 72.000000)" fill="#FFFFFF">
                    <g id="Group">
                        <path d="M24.3,0.8 C17.9,3.1 11.3,4.9 4.3,5.8 L4,8.3 C16.3,9.3 28.3,10.8 41.9,12.9 L42.3,10.1 C35.5,7.4 29.4,4.4 24.3,0.8 Z" id="Path"></path>
                        <path d="M4.8,8.9 L4.6,10.4 C16.4,11.2 28.5,12.6 40.7,14.4 L40.4,13.2 L4.8,8.9 Z" id="Path"></path>
                        <path d="M9.7,11.5 C9.4,16.2 8.5,22.2 7.7,27.9 L12.9,28.5 C13.2,24.9 13.3,22.4 14.7,11.9 C13.1,11.7 11.4,11.7 9.7,11.5 Z" id="Path"></path>
                        <path d="M19.9,12.6 C19.4,18 18.7,24 17.9,29.2 C19.7,29.4 21.6,29.7 23.1,29.8 C23.4,24.6 24.2,18.8 24.9,13.2 L19.9,12.6 Z" id="Path"></path>
                        <path d="M30.2,13.9 C29.6,18.8 28.7,24.5 28.2,30.4 C29.9,30.6 31.6,30.9 33.4,31.1 C34,25.7 34.4,19.8 35,14.6 C33.4,14.3 32.1,14.2 30.2,13.9 Z" id="Path"></path>
                        <path d="M36.7,34.5 C24.6,32.9 13.1,31.5 3.3,30.5 L3.6,28.4 L37,32.4 L36.7,34.5 Z" id="Path"></path>
                        <path d="M38.8,39.3 C26,37.6 13.2,36 0.4,34.7 C0.6,33.5 0.7,32.3 0.9,31 C12.9,32.7 25.8,34.2 39.3,35.6 C38.9,36.8 38.8,38.1 38.8,39.3 Z" id="Path"></path>
                    </g>
                </g>
                <g id="Sun" transform="translate(132.000000, 22.000000)" fill="#FFFFFF">
                    <g id="Group">
                        <path d="M17.6,25.2 C17.9,21.8 21.1,18.6 23.8,16.7 C25.3,15.7 28.5,14.5 31.7,13.9 C34.7,13.4 37.5,14.8 40,16.2 C41.8,17.2 45.2,20.6 46.7,25.4 C48.2,30.2 46,35.2 44.7,37.3 C43.4,39.5 37.7,42.8 35.2,43.6 C32.6,44.4 28.6,43.3 26.8,42.6 C24.9,41.8 20.6,38.7 18.8,35.1 C17.1,31.9 17.3,28.7 17.6,25.2 Z" id="Path"></path>
                        <path d="M50.9,19.6 L58.2,14.8 C58.2,14.8 59.2,14.7 59.7,15.3 C60.2,16.1 59.6,16.9 59.6,16.9 L52.3,21.7 C52.3,21.7 51.6,21.7 50.9,21 C50.3,20.4 50.9,19.6 50.9,19.6 Z" id="Path"></path>
                        <path d="M34.1,8.8 L34,8.2 L34,7.3 L34,5 L34.1,1.7 C34.1,1.7 34.3,1.1 35.3,1.1 C36.3,1.1 36.6,1.6 36.6,1.6 L36.5,4.9 L36.5,7.2 L36.5,8.1 L36.5,8.2 C36.5,8.2 36.3,9.1 35.1,9.2 C34,9.4 33.9,8.5 33.9,8.5 L34.1,8.8 Z" id="Path"></path>
                        <path d="M21.3,10.2 L17.7,1.5 C17.7,1.5 17.6,0.8 18.5,0.3 C19.4,3.58046925e-15 20,0.4 20,0.4 L23.6,9.1 C23.6,9.1 23.8,10.1 22.8,10.4 C21.8,10.7 21.2,10 21.2,10 L21.3,10.2 Z" id="Path"></path>
                        <path d="M11.8,28 L0.8,28.6 C0.8,28.6 0.3,28.1 0.2,27.3 C0.1,26.3 0.5,26.1 0.5,26.1 L11.5,25.6 C11.5,25.6 12.1,26.1 12.2,26.9 C12.3,27.9 11.8,28.1 11.8,28.1 L11.8,28 Z" id="Path"></path>
                        <path d="M23.1,48.1 L16.7,57.4 C16.7,57.4 16.1,57.9 15.1,57.4 C14.2,56.9 14.6,55.9 14.6,55.9 L21,46.6 C21,46.6 21.5,45.9 22.4,46.5 C23.3,47.1 23.1,47.9 23.1,47.9 L23.1,48.1 Z" id="Path"></path>
                        <path d="M35.5,50.8 L35.8,58 C35.8,58 35.6,58.7 34.5,58.9 C33.5,59 33.1,58.1 33.1,58.1 L32.8,50.9 C32.8,50.9 33.3,50.1 34.1,50.3 C35,50.3 35.5,50.8 35.5,50.8 Z" id="Path"></path>
                        <path d="M47.2,44.2 L52.6,50.7 C52.6,50.7 53,51.4 52.1,52 C51.1,52.8 50.7,52.2 50.7,52.2 L45.3,45.7 C45.3,45.7 45.2,45 45.8,44.5 C46.6,44 47.2,44.2 47.2,44.2 Z" id="Path"></path>
                        <path d="M51.7,6.1 L47.2,11.7 C47.2,11.7 46.6,12.1 45.6,11.5 C44.7,11 45,10 45,10 L49.5,4.4 C49.5,4.4 50.4,4.1 50.9,4.8 C51.6,5.4 51.7,6.1 51.7,6.1 Z" id="Path"></path>
                        <path d="M61.1,36.7 L53.9,36.1 C53.9,36.1 53.2,35.8 53.2,34.7 C53.2,33.7 54.2,33.4 54.2,33.4 L61.4,34 C61.4,34 62.1,34.6 61.8,35.4 C61.7,36.3 61.1,36.7 61.1,36.7 Z" id="Path"></path>
                        <path d="M9.5,11.4 L15.1,16 C15.1,16 15.5,16.6 14.9,17.6 C14.3,18.4 13.4,18.1 13.4,18.1 L7.8,13.5 C7.8,13.5 7.5,12.6 8.2,12.1 C8.8,11.4 9.5,11.4 9.5,11.4 Z" id="Path"></path>
                        <path d="M14.6,39.2 L14.2,39.6 L13.5,40 L11.6,41.2 L8.8,42.8 C8.8,42.8 8.2,42.9 7.7,42.1 C7.2,41.3 7.4,40.7 7.4,40.7 L10.2,39.1 L12.1,37.9 L12.8,37.5 L12.9,37.4 C12.9,37.4 13.7,37.1 14.5,38.1 C15.2,39 14.6,39.5 14.6,39.5 L14.6,39.2 Z" id="Path"></path>
                    </g>
                </g>
                <g id="Plane" transform="translate(89.000000, 5.000000)">
                    <g id="Group">
                        <g id="Path">
                            <path d="M42.7,3.2 L41.7,2.5 C40.6,2 39.5,1.4 38.2,1.7 C37.8,1.8 34.2,3.4 30.3,5 C26.4,6.8 23.9,7.4 22.8,8 C23.9,8.7 27.8,10.1 29.3,10.6 C29.3,10.6 31.7,9.4 34.7,7.9 C37.6,6.4 41.1,4.6 42,4.3 C42.4,4.1 42.6,3.3 42.7,3.2 L42.7,3.2 Z" fill="#FFFFFF"></path>
                            <path d="M1.4,1.7 C2.1,1.1 3,0.6 4.1,0.6 C5.7,0.6 6.5,0.5 8.1,1.2 C9.7,1.9 41.8,14.9 42.8,15.2 L43.6,15.4 C44.4,15.6 44.9,15.6 45.5,15 C46.6,13.7 49.3,10.7 49.5,10.3 C50.1,9.7 51.6,9.7 52.4,9.7 C53.3,9.7 56.2,9.2 55.2,11.3 C54.7,12.4 50.7,20.9 49.7,22.6 C48.5,24.4 47.6,24.7 46.4,24.2 C45.6,23.9 32.8,18.8 31.8,18.5 C31.3,18.4 30.4,18 29.5,17.8 C29.9,18.9 30.6,20.7 31.3,22.5 C31.5,23.1 35.1,32.3 35.1,33.7 C35.1,35.6 32,33.6 31.5,33.3 C30.9,33 29.7,32.4 29.2,32 C28.6,31.4 26.4,27.3 25.4,24.9 C24.5,22.8 20.9,15.8 20.3,14.6 C18.5,13.8 6.1,8.2 4.9,7.4 C2.2,5.8 0.7,4.5 0.7,2.2 C0.8,2.3 1.2,1.8 1.4,1.7 L1.4,1.7 Z" fill="#FFFFFF"></path>
                            <path d="M33.8,33.1 C32,27.2 29.7,21.6 27.4,15.8 C27.4,15.8 31.3,17.1 32.2,17.4 C33.2,17.7 45.9,22.8 46.9,23.1 C47.9,23.5 48.2,22.8 48.7,22 C49.7,20.4 53.4,12.5 54.1,11 C53.7,11 53.1,11.1 52.5,11.1 C52,11.1 51.1,11.1 50.6,11.2 C50.2,11.5 47.6,14.5 46.6,15.8 C45.7,16.9 44.6,17 43.3,16.6 L42.5,16.4 C41.4,16.1 9.2,3 7.6,2.3 C6.3,1.7 5.5,1.9 4.1,1.9 C3.5,1.9 2.8,2.4 2.3,2.8 L2.4,2.9 C2.4,2.9 2.4,2.8 2.5,3.3 C3.1,5.1 4.1,5.4 5.8,6.4 C7.1,7.2 21.5,13.7 21.5,13.7 C21.5,13.7 25.8,22.2 26.8,24.5 C27.8,26.9 29.9,30.8 30.3,31.2 C30.5,31.5 33.2,32.8 33.8,33.1 L33.8,33.1 Z" fill="#FFFFFF"></path>
                            <path d="M5.1,2.4 C5.1,2.4 5.9,2.4 6.4,2.7 C7,3.1 6.8,4.9 6,4.5 C5.6,4.3 2.5,2.5 2.5,2.5 L3.1,1.4 C3.2,1.3 4.4,2.1 5.1,2.4 L5.1,2.4 Z" fill="#415381"></path>
                            <path d="M10.2,4.5 C10.7,4.5 11.2,4.9 11.2,5.4 C11.2,5.9 10.8,6.2 10.4,6.2 C9.9,6.2 9.3,5.8 9.3,5.4 C9.3,4.9 9.6,4.5 10.2,4.5 L10.2,4.5 Z" fill="#415381"></path>
                            <path d="M15,6.8 C15.2,6.8 16,6.9 16,7.6 C16,8.3 15.2,8.4 15,8.4 C14.8,8.4 14,8.3 14,7.6 C14,7 14.8,6.8 15,6.8 Z" fill="#415381"></path>
                            <path d="M20.4,9.1 C20.9,9.1 21,9.4 21,9.9 C21,10.4 20.8,10.7 20.4,10.7 C19.9,10.7 19.4,10.3 19.4,9.9 C19.4,9.5 20,9.1 20.4,9.1 Z" fill="#415381"></path>
                            <path d="M24.7,11.3 C25.3,11.3 25.8,11.6 25.8,12.1 C25.8,12.7 25.2,12.9 24.6,12.9 C24,12.9 23.8,12.5 23.8,12.1 C23.8,11.6 24.1,11.3 24.7,11.3 Z" fill="#415381"></path>
                            <path d="M29,13 C29.6,13 30,13.2 30,13.8 C30,14.4 29.6,14.6 29,14.6 C28.4,14.6 28,14.3 28,13.8 C28,13.2 28.4,13 29,13 Z" fill="#415381"></path>
                            <path d="M33.7,14.7 C34.2,14.7 34.6,14.9 34.6,15.4 C34.6,15.9 34.4,16.2 34,16.2 C33.5,16.2 32.9,15.8 32.9,15.4 C32.9,15 33.2,14.7 33.7,14.7 Z" fill="#415381"></path>
                            <path d="M38.2,16.1 C38.7,16.1 38.9,16.5 38.9,16.9 C38.9,17.4 38.5,17.6 38,17.6 C37.5,17.6 37.2,17.4 37.2,16.9 C37.2,16.4 37.8,16.1 38.2,16.1 Z" fill="#415381"></path>
                            <path d="M51.4,24.2 C51.7,24.3 52.2,24.6 52.7,24.9 L53.5,25.4 C53.5,25.4 53.7,25.8 53.4,26.2 C53.2,26.6 52.8,26.5 52.8,26.5 L52,26 C51.6,25.7 51.1,25.5 50.9,25.4 C50.9,25.4 50.8,25 50.9,24.6 C51.1,24.2 51.5,24.2 51.4,24.2 L51.4,24.2 Z" fill="#FFFFFF"></path>
                            <path d="M55.5,26.5 C55.8,26.6 56.3,26.9 56.8,27.1 L57.6,27.6 C57.6,27.6 57.8,28 57.5,28.4 C57.3,28.8 56.9,28.7 56.9,28.7 L56.1,28.2 C55.7,27.9 55.2,27.7 55,27.6 C55,27.6 54.9,27.2 55,26.8 C55.2,26.4 55.5,26.4 55.5,26.5 L55.5,26.5 Z" fill="#FFFFFF"></path>
                        </g>
                        <path d="M51.4,13.6 L56.8,15.8 C56.8,15.8 56.9,16.2 56.7,16.5 C56.6,16.9 56.3,16.9 56.3,16.9 L50.9,14.7 C50.9,14.7 50.7,14.3 50.8,13.9 C50.9,13.6 51.4,13.5 51.4,13.6 L51.4,13.6 Z" id="Path" fill="#415381"></path>
                        <path d="M64.7,30.5 C65,30.6 65.6,30.9 66,31.2 L66.9,31.7 C66.9,31.7 67.1,32.1 66.8,32.5 C66.6,32.9 66.2,32.8 66.2,32.8 L65.4,32.3 C65,32 64.5,31.8 64.3,31.7 C64.3,31.7 64.2,31.3 64.3,30.8 C64.4,30.5 64.8,30.5 64.7,30.5 L64.7,30.5 Z" id="Path" fill="#FEFEFE"></path>
                        <path d="M69.9,33 C70.2,33.1 70.8,33.4 71.2,33.7 L72.1,34.2 C72.1,34.2 72.3,34.6 72,35 C71.8,35.4 71.4,35.3 71.4,35.3 L70.6,34.8 C70.2,34.5 69.7,34.3 69.5,34.2 C69.5,34.2 69.4,33.8 69.5,33.3 C69.6,33 69.9,33 69.9,33 Z" id="Path" fill="#415381"></path>
                        <path d="M74.9,35.1 C75.2,35.2 75.8,35.5 76.2,35.7 L77.1,36.1 C77.1,36.1 77.3,36.5 77.1,36.9 C76.9,37.3 76.5,37.3 76.5,37.3 L75.6,36.9 C75.1,36.7 74.7,36.4 74.5,36.4 C74.5,36.4 74.3,36 74.5,35.5 C74.6,35.2 74.9,35.1 74.9,35.1 Z" id="Path" fill="#415381"></path>
                        <path d="M80.1,37.3 C80.4,37.4 81,37.7 81.4,37.9 L82.3,38.3 C82.3,38.3 82.5,38.7 82.3,39.1 C82.1,39.5 81.7,39.5 81.7,39.5 L80.8,39.1 C80.3,38.9 79.9,38.6 79.7,38.6 C79.7,38.6 79.5,38.2 79.7,37.7 C79.8,37.4 80.1,37.3 80.1,37.3 Z" id="Path" fill="#415381"></path>
                        <path d="M84.7,39.2 C85,39.3 85.6,39.6 86,39.8 L86.9,40.2 C86.9,40.2 87.1,40.6 86.9,41 C86.7,41.4 86.3,41.4 86.3,41.4 L85.4,41 C84.9,40.8 84.5,40.5 84.3,40.5 C84.3,40.5 84.1,40.1 84.3,39.6 C84.4,39.3 84.7,39.2 84.7,39.2 Z" id="Path" fill="#415381"></path>
                        <path d="M59.9,28.6 C60.2,28.7 60.8,29 61.2,29.2 L62.1,29.7 C62.1,29.7 62.3,30.1 62,30.5 C61.8,30.9 61.4,30.8 61.4,30.8 L60.6,30.3 C60.2,30 59.7,29.8 59.5,29.7 C59.5,29.7 59.4,29.3 59.5,28.8 C59.7,28.6 59.9,28.6 59.9,28.6 L59.9,28.6 Z" id="Path" fill="#FEFEFE"></path>
                    </g>
                </g>
                <g id="Phone" transform="translate(165.000000, 67.000000)">
                    <g id="Group">
                        <g id="Path">
                            <path d="M34.5,1.2 L45.1,12.8 C46.7,14.7 46.1,16.7 44.2,18.4 C35.9,25.4 27.3,33 18.4,41.1 C15.3,43.8 14.6,43.5 12.6,41.8 L1.7,31.8 C-2.84217094e-14,29.6 0.3,27.5 2.6,25.6 C12.2,17.1 21.2,9 29.4,1.3 C31.4,0.1 33.1,0.1 34.5,1.2 Z" fill="#FFFFFF"></path>
                            <path d="M30.2,5 C33.7,8.9 37.4,12.9 41.3,17.1 C34.1,23.2 26.8,29.7 19.5,36.4 C15.1,32 10.9,27.8 7.9,25.3 C16,18.1 23.7,11.1 30.2,5 Z" fill="#415381"></path>
                            <path d="M36.6,7.4 L39.2,10.3 C39.7,10.9 39.1,11.5 38.4,11 L35.7,8 C35.1,7.3 35.8,6.7 36.6,7.4 Z" fill="#415381"></path>
                            <path d="M11.8,31.8 C9.7,29.9 6.8,33 9.2,35.1 C11.4,36.8 13.9,33.7 11.8,31.8 Z" fill="#415381"></path>
                        </g>
                        <polygon id="Path" fill="#FFFFFF" points="38.7 24.7 41.3 33.7 37.9 32.6 37.7 39.6 36.1 30 39 31.2"></polygon>
                        <polygon id="Path" fill="#FFFFFF" points="45 19.7 51.9 25.6 49 27.2 52.8 32.4 46.1 26 49 25.3"></polygon>
                        <polygon id="Path" fill="#FFFFFF" points="49.6 12.4 60 14.4 57.4 17 64.3 19.6 54.7 17.4 57.3 15.1"></polygon>
                    </g>
                </g>
                <g id="Girl" transform="translate(137.000000, 100.000000)">
                    <g id="Group">
                        <g id="Path">
                            <g>
                                <polygon fill="#FFFFFF" points="35.9 64.9 43.9 52 37.6 49.7 29.6 61.3"></polygon>
                                <path d="M26.2,43.2 C27.6,43.6 30,44.4 32.3,45.1 C35.7,46.1 39.4,47.3 40,47.6 C40.5,47.8 44.1,48.8 47.8,49.6 C51.4,50.5 56.4,51.6 56.4,51.6 C56.4,51.6 52.7,53.5 50.3,54.6 C48.8,55.3 47.3,56 45.8,56.6 L45.4,56.8 C45.2,56.9 45,56.9 44.9,56.8 C44.5,56.7 37,54.5 35.2,54 L33.2,57 C35.2,57.7 42.6,60.4 45.1,59.9 C46.5,59.7 55.2,57.5 57,57 C58.7,56.5 59.7,55.7 60.3,55.1 C60.8,54.6 64.2,47.8 65.2,45.5 C66.1,43.5 66,42.7 65.6,40.8 C62.3,35 61.8,32.9 60.9,26.3 C60.6,24.1 60.4,22.1 60.2,21 L56,22.3 C56.3,22.9 56.6,23.7 56.7,24.5 C56.9,25.9 58.6,32.7 59.5,35.7 C60,37.3 61.1,39.3 62.3,40.5 L61.5,41.3 C61.5,41.3 60.4,40.2 59.8,39.5 C59.4,38.9 58.5,38.7 57.8,38.7 C56.9,38.7 52.6,38.9 52,38.5 C51.8,38.4 51.7,38.1 51.6,37.9 L51.5,37.7 C51.4,37.4 51.3,36.9 50.9,36.1 C47.9,30.4 46.4,24.1 43.5,18.4 C43.2,17.8 42.9,17.3 42.8,16.9 C41.3,17.7 36.6,20.1 34.8,20.8 C33.5,21.3 32.9,22.1 32.4,23.3 L32.1,23.7 C30.9,25.9 29.3,32 28.8,33.6 C27.4,38.2 26.2,42.6 26.2,42.6 L26.2,43.2 L26.2,43.2 Z" fill="#919FD1"></path>
                                <polygon fill="#FFFFFF" points="60.5 46 63.2 49.1 64.4 46.4"></polygon>
                                <path d="M27.5,0.3 L27.4,3.5 C30.8,6.8 35.9,12 36.9,13.1 C37.9,14.2 38.6,16.2 39,17.7 L42.4,16 L41.9,14.9 C41.5,14.1 41.2,13.4 40.9,13.1 C40.5,12.5 36.8,8.9 35.5,7.6 C34.4,6.5 29.3,1.9 27.5,0.3 Z" fill="#FFFFFF"></path>
                                <path d="M0.6,40.1 L2.4,42.2 C5.2,41.9 8.8,41.5 9.3,41.4 C10.2,41.2 18.1,40.7 19,40.8 C19.4,40.9 21,41.3 22.4,41.8 L24.8,42.6 L26.4,38.4 C24.9,38.2 19.8,37.6 15.9,37.8 C11.8,38 3.1,39.7 0.6,40.1 L0.6,40.1 Z" fill="#FFFFFF"></path>
                                <path d="M57.1,20.2 L57.1,20.8 L60.4,20 C60.4,19.6 60.5,18.7 60.4,18.3 C60.4,18 60.2,17.7 59.5,17.7 C58.7,17.7 57.3,18.3 57.2,18.7 C57.1,19.1 57.1,19.7 57.1,20.2 L57.1,20.2 Z" fill="#FFFFFF"></path>
                                <path d="M47,40.6 C47,40.3 47.4,40.2 47.8,40.2 C48.1,40.2 48.4,40.5 48.4,40.8 C48.4,41.2 48.2,41.4 47.8,41.4 C47.5,41.3 47,40.9 47,40.6 Z" fill="#415381"></path>
                                <path d="M50.4,42.3 C50.4,42 50.8,41.9 51.2,41.9 C51.5,41.9 51.8,42.2 51.8,42.5 C51.8,42.8 51.6,43.1 51.2,43.1 C50.9,43 50.4,42.6 50.4,42.3 Z" fill="#415381"></path>
                                <path d="M53.9,43.3 C53.9,43 54.3,42.9 54.7,42.9 C55,42.9 55.3,43.2 55.3,43.5 C55.3,43.9 55.1,44.1 54.7,44.1 C54.4,44 53.9,43.6 53.9,43.3 Z" fill="#415381"></path>
                                <path d="M70,49.6 C70,49.6 70.6,48.8 70.8,48.6 C71,48.3 71.6,48.8 71.2,49.2 C70.8,49.6 70.6,50.2 70.6,50.2 L70,49.6 Z" fill="#FFFFFF"></path>
                                <path d="M68.1,49.2 C67.5,48.8 67,49.1 66.4,49.7 C66.2,50.4 66,51.2 66,51.9 C66.1,52.8 69.7,56.9 70.7,56.2 C71.1,55.9 71.6,55.1 72,54.7 C72.9,53.5 72.3,53.1 71.7,52.2 C71.4,51.5 69,49.8 68.1,49.2 Z" fill="#FFFFFF"></path>
                                <path d="M71.3,56.9 C71,57.1 70.5,57.3 70.1,57.2 C69.7,57.1 68.8,56.3 68,55.6 L66.9,54.7 C66.1,56.7 64.8,55.3 64.3,57 C64.1,57.7 63.9,58.4 63,58.5 C61.1,58.9 61.3,60.8 59.4,60.9 C58.9,61 58,61.9 58,62.1 C58.2,62.5 58.5,63 58.8,63.3 C60.2,65.5 61.7,67.7 63.2,69.8 L63.4,69.4 C63.9,68.4 64.6,66.1 65.6,65.5 C65.8,65.4 66,64.8 66,64.6 L66.2,63.9 C66.5,62.8 67.5,62.8 68.3,62.1 C68.9,61.6 68.6,59.9 69.5,59.1 L69.8,58.9 L70.4,58.4 C71.2,57.9 71.2,57.9 71.3,56.9 L71.3,56.9 Z" fill="#FFFFFF"></path>
                                <path d="M69.3,52 C69.7,51.6 71,52.8 70.5,53.3 C70,53.8 68.8,52.5 69.3,52 Z" fill="#425381"></path>
                            </g>
                            <path d="M33.5,52.7 C33.5,52.5 32.7,51.8 32.2,51.7 C31.9,51.6 31,51.1 30.7,51.4 C30.3,51.7 29.6,53 29.3,53.5 L31.3,55.9 C31.9,55 33.5,52.9 33.5,52.7 L33.5,52.7 Z" fill="#FFFFFF"></path>
                        </g>
                        <polygon id="Path" fill="#FEFEFE" points="36.4 49.5 34.4 48.8 26.4 59.5 28.7 60.6"></polygon>
                    </g>
                </g>
                <g id="Mortar_board" transform="translate(108.000000, 136.000000)">
                    <g id="Group">
                        <polygon id="Path" fill="#919FD1" points="69.5 0.2 73.8 8.5 67.2 7.3"></polygon>
                        <polygon id="Path" fill="#919FD1" points="69.8 3.3 68.9 6.3 71.6 6.9"></polygon>
                        <path d="M16.3,36 C15.4,37.1 14.3,38.7 13.9,40.3 C13.1,43.9 13,45.4 13.4,46 C13.6,46.3 13.9,47.1 14.1,47.4 C16.3,46.1 21,43.3 23.1,42.6 C24.6,42.1 27.2,42.2 29.1,43.5 C29.6,43.9 30,44.1 30.4,44.3 C30.4,38.9 32.7,37.9 37,35.3 C37.8,34.8 39.3,33.9 40.7,33.2 L42.4,32.2 L42.8,32 L42.6,31.6 C42.3,31.2 41.9,30.6 41.7,30.2 C41.3,29.4 39.8,27.6 38.8,27.2 C38.1,27 37.4,26.7 37,26.6 L28.6,37.2 L16.3,36 L16.3,36 Z" id="Path" fill="#FEFEFE"></path>
                        <polygon id="Path" fill="#FFFFFF" points="18.9 12.9 0.7 33.1 28.3 36.1 44.7 14.8"></polygon>
                        <path d="M51.3,16 C51.6,15.9 52,15.7 52.6,15.3 C53.8,14.5 67.6,6.3 67.6,6.3 L68.2,7.3 C68.2,7.3 54.5,15.5 53.3,16.3 C52.5,16.8 50.4,18 50.1,16.3 L50.1,16.1 C50,14.3 50.3,12.6 49.9,10.8 C49.7,9.5 48.6,10.4 47.9,10.8 C47.4,11.1 47,11.3 46.6,11.6 C44.9,12.5 23.4,24.4 23.4,24.4 L22.8,23.3 C22.8,23.3 44.4,11.5 46,10.5 C47.4,9.7 50.5,7.4 51.1,10.6 C51.5,12.4 51.2,14.2 51.3,16 L51.3,16 L51.3,16 Z" id="Path" fill="#919FD1"></path>
                        <path d="M22.8,21.9 L24.2,24.8 C24.2,24.8 24.3,25.1 23.8,25.3 C23.3,25.6 23.1,25.3 23.1,25.3 L21.7,22.4 C21.7,22.4 21.7,22 22.1,21.8 C22.6,21.6 22.8,21.9 22.8,21.9 Z" id="Path" fill="#919FD1"></path>
                    </g>
                </g>
                <g id="Book" transform="translate(31.000000, 113.000000)">
                    <g id="Group">
                        <g id="Path">
                            <path d="M3.9,6.6 L26.6,0.5 L40.7,25 L38.9,25.5 L38.3,31.9 L39.8,33.6 C33.5,35.1 25.8,37 17.1,40 C13.7,40.9 12.6,38.7 12,37.2 L1.2,15.5 C-0.7,11.9 -0.5,7.7 3.9,6.6 Z" fill="#919FD1"></path>
                            <path d="M38.4,25.5 L38.2,27.1 C28.5,29.8 17.1,32.9 13.8,33.8 C13.9,33.4 14.2,32.7 14.8,32.4 L38.4,25.5 Z" fill="#FFFFFF"></path>
                            <polygon fill="#FFFFFF" points="38.1 27.6 13.7 34.4 13.4 35.8 37.9 28.7"></polygon>
                            <polygon fill="#FFFFFF" points="37.8 29.4 13.4 36.3 13.6 37.5 37.8 30.7"></polygon>
                            <polygon fill="#FFFFFF" points="37.7 31.4 37.7 32.1 13.9 38.8 13.5 38.1"></polygon>
                        </g>
                        <path d="M3.6,7.9 L14.5,31.5 L14.3,31.7 C9.8,23.2 5.9,15.1 3.1,7.8 L3.6,7.8 L3.6,7.9 Z" id="Path" fill="#FFFFFF"></path>
                    </g>
                </g>
                <g id="Stars" transform="translate(64.000000, 19.000000)" fill="#FEFEFE">
                    <polygon id="Path" points="36.8 0.3 35.6 3.3 32.6 3.8 35 5.4 33.8 9 36.8 6.2 39.2 8.8 38.4 5 40.1 3.4 37.5 3.6"></polygon>
                    <polygon id="Path" points="4.6 32.9 3.6 35.9 0.5 36.2 2.7 38.1 2 41.8 4.8 39 7.4 41.6 6.6 37.5 8.9 35.7 5.7 35.8"></polygon>
                    <polygon id="Path" points="45.6 162.4 46.8 158.9 47.6 162.4 50.8 162.8 48.3 164 48.8 168.6 46.3 165.9 43.7 168 44.5 164.2 42.2 162.4"></polygon>
                    <polygon id="Path" points="89.3 112.7 90.3 109 91.4 112.7 94.3 112.7 91.9 114.1 92.5 117.5 90.4 115.2 88 117.8 88.4 114.1 86.3 112.7"></polygon>
                    <polygon id="Path" points="132.2 85.3 133 89 136.4 89.2 133.5 91.2 133.8 95.1 131.2 92.1 128.1 95 129.5 91.1 126.9 88.5 130.7 88.4"></polygon>
                </g>
            </g>
        </g>
    </g>
</svg>