<?xml version="1.0" encoding="UTF-8"?>
<!DOCTYPE svg PUBLIC "-//W3C//DTD SVG 1.1//EN" "http://www.w3.org/Graphics/SVG/1.1/DTD/svg11.dtd">
<!-- Creator: CorelDRAW X6 -->
<svg xmlns="http://www.w3.org/2000/svg" xml:space="preserve" width="3.86111in" height="3.72222in" version="1.1" style="shape-rendering:geometricPrecision; text-rendering:geometricPrecision; image-rendering:optimizeQuality; fill-rule:evenodd; clip-rule:evenodd"
viewBox="0 0 3861 3722"
 xmlns:xlink="http://www.w3.org/1999/xlink">
 <defs>
  <style type="text/css">
   <![CDATA[
    .fil7 {fill:#373435}
    .fil8 {fill:white}
    .fil6 {fill:#859BCE}
    .fil2 {fill:#0F62AC;fill-rule:nonzero}
    .fil0 {fill:#373435;fill-rule:nonzero}
    .fil5 {fill:#6CC9C7;fill-rule:nonzero}
    .fil9 {fill:white;fill-rule:nonzero}
    .fil3 {fill:#859BCE;fill-rule:nonzero}
    .fil1 {fill:#DCDDDF;fill-rule:nonzero}
    .fil4 {fill:#FEFEFE;fill-rule:nonzero}
   ]]>
  </style>
 </defs>
 <g id="Layer_x0020_1">
  <metadata id="CorelCorpID_0Corel-Layer"/>
  <path class="fil0" d="M1144 242c97,-60 222,-113 301,-138 0,0 55,-21 133,-43 79,-22 182,-46 278,-52 192,-12 506,37 688,128 183,92 418,358 503,479 85,123 156,353 184,511 29,159 39,331 0,525 -39,193 -204,589 -281,678 -78,88 -345,237 -444,286 -102,50 -448,139 -620,139 -173,0 -524,-139 -684,-229 -162,-92 -319,-261 -444,-427 -127,-169 -193,-433 -222,-630 -29,-200 50,-483 118,-646 69,-164 392,-519 491,-579z"/>
  <path class="fil1" d="M2535 158c178,89 410,351 494,472 83,119 152,345 181,502 29,157 38,325 0,516 -39,192 -202,583 -276,667 -74,84 -336,231 -437,280 -99,49 -441,136 -610,136 -167,0 -514,-136 -673,-226 -158,-89 -313,-256 -437,-421 -123,-164 -189,-424 -217,-620 -28,-194 49,-472 116,-634 67,-160 387,-510 481,-569 181,-112 494,-217 702,-230 189,-12 498,37 677,126z"/>
  <path class="fil2" d="M2523 181c-173,-87 -478,-135 -663,-123 -203,13 -512,117 -690,226 -90,56 -407,402 -471,557 -67,160 -142,433 -114,620 29,195 93,450 212,608 124,165 276,328 429,414 158,90 500,223 660,223 164,0 503,-87 599,-134 102,-50 359,-194 429,-274 70,-79 232,-465 270,-655 38,-187 28,-352 0,-506 -28,-156 -97,-377 -176,-492 -83,-119 -312,-377 -484,-463z"/>
  <path class="fil1" d="M1483 802c33,-23 76,-50 114,-69 79,-40 236,-75 384,-79 146,-4 271,84 376,160 81,59 216,243 255,474 39,237 -97,456 -168,545 -77,98 -364,214 -485,235 -131,23 -312,-57 -392,-102 -85,-48 -266,-222 -326,-401 -56,-166 -25,-313 11,-470 21,-92 102,-193 173,-252 0,0 24,-18 57,-41z"/>
  <path class="fil3" d="M1294 1104c-35,153 -65,292 -13,447 56,167 229,333 307,377 80,45 249,117 364,97 118,-20 391,-135 459,-220 69,-87 196,-293 160,-512 -37,-221 -166,-394 -237,-446 -102,-73 -219,-155 -350,-152 -144,4 -294,39 -366,75 -58,29 -113,67 -164,106 0,0 -130,107 -158,228z"/>
  <path class="fil4" d="M1854 1526l46 6 -113 264 24 189 -90 -21 -22 -62 -40 -12 -15 -53 -49 -8 -35 -89 -44 -5 -94 -34 -50 -173 72 -123 131 -13 34 -8 -7 -24 -84 -27 -68 56 -106 15 -10 -124 67 -25 -4 -41 31 -27 -33 25 -22 -189 130 108 -28 21 71 12 17 -61 -60 5 3 -119 100 -75 93 -36 56 59 -27 37 8 18 31 -5 94 -90 79 -4 46 6 1 -15 90 -55 77 -34 52 49 -34 101 4 9 69 -22 43 56 23 -13 43 -12 29 34 47 -11 23 54 37 5c14,26 27,54 39,83l-54 41 -5 79 -54 29 -54 -84 -8 65 -46 28 -6 89 -30 33 -36 11 -17 24 2 15 34 63 -75 45 -74 -68 -15 -10 -23 2 -41 76 -67 -97 -29 -3 -71 64zm-60 485c55,15 112,22 159,14 42,-7 104,-26 169,-52l-40 -38 -44 22 -43 -24 -65 37 -49 -24 -86 65zm526 -134c40,-25 73,-49 91,-72 31,-39 74,-103 109,-181l-56 -41 -40 48 -2 -30 -84 9 -26 44 -95 22 -5 34 -47 89 54 62 69 -12 33 29zm-227 -1166c-35,-11 -72,-17 -109,-16 -84,2 -169,15 -241,32l98 69 60 -23 43 31 60 -41 61 2 28 -54zm-292 744l21 66 32 5 -53 -71z"/>
  <polygon class="fil0" points="1348,1288 1415,1263 1410,1218 1471,1165 1553,1178 1587,1060 1580,1054 1568,1084 1515,1088 1517,994 1609,925 1691,894 1731,936 1706,969 1723,1007 1770,999 1864,909 1935,905 1996,913 1997,889 2080,838 2147,809 2184,844 2151,941 2162,969 2235,946 2279,1004 2312,985 2344,977 2373,1010 2416,1000 2437,1050 2484,1057 2507,1117 2455,1157 2450,1234 2416,1253 2361,1167 2343,1176 2334,1244 2287,1273 2281,1365 2257,1391 2220,1402 2196,1436 2199,1459 2228,1511 2176,1543 2109,1481 2089,1468 2052,1470 2019,1532 1962,1450 1920,1446 1856,1503 1806,1436 1778,1436 1811,1535 1877,1544 1770,1793 1792,1964 1732,1950 1710,1889 1671,1877 1656,1822 1606,1814 1570,1724 1519,1718 1434,1687 1388,1529 1453,1418 1577,1406 1628,1393 1613,1346 1513,1315 1442,1373 1356,1385 "/>
  <path class="fil0" d="M2291 1832l-67 12 -41 -47 43 -82 4 -27 91 -21 26 -43 60 -7 2 31 21 -1 37 -44 47 34c-33,72 -73,130 -102,167 -16,20 -43,42 -77,63l-43 -37z"/>
  <path class="fil0" d="M1882 1964l48 24 65 -37 42 24 42 -21 27 26c-59,23 -115,39 -154,46 -42,7 -91,2 -140,-9l69 -52z"/>
  <path class="fil4" d="M1884 1985l-48 36c41,8 81,10 116,4 35,-6 82,-20 135,-39l-11 -11 -39 20 -42 -23 -64 37 -46 -23z"/>
  <path class="fil0" d="M1843 779l-79 -56c67,-15 144,-25 220,-27 32,-1 64,3 94,11l-22 42 -57 -2 -55 38 -41 -29 -61 24z"/>
  <path class="fil5" d="M2296 1813l53 46c2,-2 4,-3 7,-5 24,-23 47,-44 68,-66 25,-33 54,-79 81,-133l-36 -26 -31 37 -47 2 -2 -30 -32 4 -25 42 -87 20 -3 17 -39 74 26 30 65 -12z"/>
  <polygon class="fil0" points="1475,1128 1404,1181 1389,1057 "/>
  <path class="fil4" d="M1845 759l61 -24 38 28 49 -34 51 2 10 -19c-87,-15 -179,-13 -265,9l55 39z"/>
  <polygon class="fil5" points="1367,1301 1372,1364 1434,1356 1509,1294 1628,1332 1651,1406 1580,1424 1464,1435 1408,1531 1449,1673 1523,1700 1583,1707 1619,1797 1671,1806 1686,1862 1724,1874 1746,1935 1770,1941 1752,1791 1851,1559 1797,1551 1753,1417 1815,1417 1859,1476 1913,1427 1973,1433 2017,1497 2041,1453 2094,1449 2120,1467 2178,1520 2203,1505 2182,1465 2178,1431 2208,1387 2247,1375 2263,1357 2270,1262 2317,1233 2326,1163 2368,1144 2422,1229 2432,1223 2437,1148 2485,1111 2471,1073 2424,1066 2405,1021 2366,1031 2338,997 2319,1002 2274,1027 2228,967 2151,991 2132,942 2163,849 2143,830 2089,855 2015,900 2013,933 1935,924 1871,927 1779,1016 1712,1027 1685,967 1707,937 1686,915 1618,941 1535,1003 1534,1068 1555,1066 1573,1025 1607,1053 1567,1199 1476,1184 1429,1226 1434,1275 "/>
  <polygon class="fil5" points="1445,1127 1413,1100 1418,1147 "/>
  <polygon class="fil4" points="1747,309 1730,352 1689,358 1722,380 1706,430 1747,392 1781,428 1769,375 1793,353 1757,355 "/>
  <polygon class="fil4" points="1217,846 1203,887 1159,892 1190,918 1181,970 1220,930 1255,966 1244,909 1277,885 1232,886 "/>
  <polygon class="fil4" points="1432,2476 1449,2428 1460,2476 1504,2482 1469,2499 1477,2563 1442,2525 1405,2554 1416,2502 1385,2476 "/>
  <polygon class="fil4" points="2476,1871 2490,1819 2505,1871 2546,1871 2513,1890 2521,1937 2491,1905 2458,1942 2464,1890 2434,1871 "/>
  <polygon class="fil4" points="3072,1490 3083,1541 3131,1544 3090,1572 3095,1626 3058,1585 3015,1625 3034,1571 2999,1535 3051,1533 "/>
  <path class="fil0" d="M1297 1104c-36,158 -64,293 -13,446 56,166 228,332 305,376 80,45 248,117 362,97 118,-20 390,-134 457,-219 69,-87 195,-292 159,-510 -36,-220 -166,-393 -236,-444 -107,-77 -220,-155 -349,-151 -144,4 -294,39 -365,74 -127,63 -287,186 -321,331zm-20 -5c35,-152 199,-279 332,-345 75,-38 228,-72 374,-77 137,-4 255,78 361,155 76,55 207,232 245,458 37,227 -93,438 -163,526 -72,90 -350,206 -470,226 -122,21 -296,-54 -376,-99 -81,-46 -257,-215 -315,-387 -54,-158 -24,-300 12,-457z"/>
  <path class="fil1" d="M744 208c0,0 2,-3 6,-5 14,-7 28,9 20,22l-33 50c1,3 3,4 5,5 1,-1 1,-3 2,-4l36 -47c0,0 3,-3 6,-4 15,-5 27,12 17,24l-40 45 0 4 45 -44c0,0 3,-2 7,-3 15,-3 24,16 13,26l-46 38c19,28 37,67 12,90 -26,25 -51,10 -73,-8l-6 6c-12,13 -33,-9 -20,-20l6 -7c-5,-5 -9,-11 -13,-15 -32,-38 -10,-87 27,-88 -1,-4 -1,-8 1,-12l29 -52zm317 170c-22,5 -43,16 -60,30l15 15c10,-9 19,-18 28,-27l17 -18zm420 197c-8,0 -17,-2 -26,-5 -18,-7 -115,-30 -128,-41l-3 -3 -4 -4c-8,-8 -10,-19 -10,-28 0,-9 3,-18 5,-26l2 -8 -8 -3c-28,-10 -41,-17 -31,-50 -6,-3 -12,-6 -16,-8l-19 0c-37,-1 -89,-25 -131,-27 -8,0 -17,0 -31,2l39 90c0,0 -26,15 -38,23l26 26c30,20 135,73 153,82 11,5 20,12 30,20 16,12 28,12 49,6 24,-7 100,-26 116,-36 7,-4 16,-8 25,-10zm-690 248c3,-12 21,-126 21,-134 -1,-4 -3,-7 -5,-10l-5 -8 -52 23c0,0 -14,-78 -18,-108 -2,-18 -12,-90 -2,-107 4,-7 18,-22 31,-36 36,-38 101,-116 142,-142 34,-21 103,-45 143,-56l0 -24 31 0 0 17c17,-4 41,-8 41,-8l0 22 0 28 112 28c14,3 34,11 44,15 10,-6 24,-14 35,-14 5,-9 12,-17 25,-17 10,0 25,6 35,10l11 -34c11,-24 18,-42 51,-34 26,6 138,37 153,64 6,11 4,24 0,39 -8,32 -58,198 -62,212 -2,5 -4,10 -7,13 6,-4 10,-8 16,-13l116 126 -22 21 -19 -19c-54,13 -96,28 -148,44 -26,8 -54,16 -70,17 -36,2 -57,25 -101,17 -37,-7 -71,-22 -106,-34 -15,-5 -30,-8 -44,-14 -6,-3 -32,-15 -38,-10 -13,9 -25,31 -25,63 0,27 -1,174 16,195 34,41 62,110 92,158 11,17 22,34 33,51l-142 102 -17 -28c8,-4 23,-11 26,-19 -43,-74 -114,-219 -124,-306 -4,-30 -9,-66 -14,-97 -4,-30 -8,-58 -8,-70 0,-14 -1,-41 -1,-57l-29 -21c2,6 3,12 3,17 0,12 -7,50 -10,64 -3,15 -22,58 -33,101 -11,42 -25,59 -40,63 -20,5 -42,3 -62,3l-13 -18c1,-3 1,-6 1,-10 0,-18 9,-41 26,-52l9 -5c1,-1 3,-2 5,-3l2 -2z"/>
  <path class="fil0" d="M720 381l-13 14c0,0 -2,3 -6,-1 -4,-4 -2,-6 -2,-6l13 -14 8 7z"/>
  <path class="fil0" d="M690 292c36,-41 89,32 101,62 6,15 7,31 -5,43 -21,21 -37,8 -56,-5 -12,-8 -28,-26 -37,-38 -10,-12 -24,-39 -3,-62z"/>
  <path class="fil0" d="M722 264l29 -51c0,0 4,-5 8,-2 5,3 2,8 2,8l-33 49c0,0 -3,3 -6,2 -3,-2 0,-6 0,-6z"/>
  <path class="fil0" d="M867 632l-111 49c0,0 -12,-67 -16,-96 -2,-14 -11,-87 -3,-101 3,-6 16,-20 29,-34 36,-38 104,-118 140,-140 29,-18 65,-29 96,-41 43,-17 104,-28 104,-28l-1 46 120 30c16,4 39,13 47,16 8,-5 25,-15 34,-15 8,0 41,7 41,20 0,7 -11,44 -16,56 -6,15 -18,13 -31,12 -10,0 -28,-10 -38,-15l-22 0c-17,0 -66,-15 -85,-19 -43,-9 -47,-11 -92,-3 -29,5 -56,20 -77,40l114 112 -156 166 -78 -56z"/>
  <polygon class="fil0" points="750,631 830,598 835,610 755,643 "/>
  <path class="fil4" d="M1105 300l117 29c19,5 51,18 51,18 6,-4 27,-16 33,-16 6,0 21,5 28,9 -1,8 -11,39 -15,50 -3,7 -13,4 -19,4 -7,0 -28,-11 -34,-15l-25 0c-5,0 -16,-3 -31,-6 -26,-7 -69,-19 -94,-21 -4,0 -9,-1 -13,-1l2 -51z"/>
  <path class="fil4" d="M1092 296l-2 54c-47,3 -92,25 -123,60l116 111 -140 149 -156 -111 -8 10 74 54 -88 38c-3,-18 -27,-157 -18,-173 2,-4 13,-16 28,-31 34,-37 103,-117 138,-138 10,-6 23,-12 38,-18 46,-19 93,-36 142,-46l-1 41 0 0z"/>
  <polygon class="fil0" points="812,473 794,422 849,433 852,478 "/>
  <path class="fil0" d="M845 490c-2,-7 -7,-28 -7,-28 0,0 20,13 27,18 16,11 29,24 43,37l13 11c23,-30 52,-54 80,-79 17,-15 33,-29 48,-45 8,-8 21,-23 21,-23l36 82c0,0 -24,14 -34,21 -12,8 -22,21 -31,32 -18,21 -75,56 -86,77 -8,16 -39,15 -47,5 -10,-13 -23,-24 -31,-39 -3,-7 -18,-42 -23,-47 -4,-5 -7,-13 -9,-19z"/>
  <path class="fil3" d="M864 501c7,7 20,41 25,50 7,14 20,25 29,37 3,4 22,4 26,-3 14,-26 68,-56 88,-80 21,-24 31,-33 59,-50l-23 -53 -8 9c-15,17 -32,31 -49,46 -31,28 -61,55 -87,89l-23 -20c-14,-12 -26,-25 -41,-35 2,4 3,8 5,10z"/>
  <path class="fil0" d="M1520 689c-30,10 -108,37 -136,39 -31,1 -58,24 -99,17 -36,-7 -70,-22 -105,-34 -14,-5 -30,-8 -44,-14 -11,-5 -36,-17 -47,-9 -16,11 -29,36 -29,70 -1,54 1,109 7,163 2,16 5,30 12,38 16,20 59,98 66,113 13,26 37,63 54,88l-127 91 -7 -11c4,-2 28,-17 21,-28 -43,-73 -113,-217 -124,-301 -4,-31 -9,-67 -14,-98 -5,-31 -8,-57 -8,-68 0,-20 -2,-71 -2,-71l150 -156c0,0 145,74 167,85 32,15 38,40 85,26 19,-6 105,-28 118,-37 7,-4 17,-8 27,-11l14 -5c10,-4 18,-9 26,-16l104 113 -9 9 -16 -17c-13,3 -60,14 -85,22z"/>
  <path class="fil0" d="M1314 321l0 -3c1,-9 6,-18 17,-18 10,0 33,10 43,14l-5 12c0,0 -7,-3 -16,-7 -9,-4 -18,-6 -22,-7 -3,0 -3,5 -4,6l0 2 -13 0z"/>
  <path class="fil0" d="M1302 404c-1,2 -9,21 -7,25 3,4 37,14 39,15l-3 12c0,0 -10,-3 -20,-6 -6,-2 -23,-8 -27,-14 -5,-9 2,-28 6,-36l12 5z"/>
  <path class="fil0" d="M1389 261c7,-17 17,-23 36,-18 18,4 134,36 147,59 4,7 3,17 -1,32 -8,32 -57,197 -62,212 -6,20 -26,25 -52,15 -22,-8 -115,-31 -125,-40l-3 -3 -3 -3c-12,-12 -8,-30 -3,-45 9,-32 63,-200 63,-200 2,-3 3,-7 4,-10z"/>
  <path class="fil0" d="M750 280l35 -47c0,0 4,-4 9,0 5,4 1,9 1,9l-39 44c0,0 -3,3 -6,1 -3,-2 0,-6 0,-6z"/>
  <path class="fil0" d="M771 300l42 -40c0,0 5,-3 9,1 4,5 -1,9 -1,9l-46 37c0,0 -4,2 -6,0 -2,-2 1,-6 1,-6z"/>
  <path class="fil3" d="M1101 1214l80 -58 -20 -31c-12,-19 -25,-41 -28,-48 -7,-15 -49,-92 -64,-110 -17,-21 -14,-61 -17,-87 -3,-19 -4,-88 -4,-123 1,-36 15,-66 35,-80 21,-15 54,9 76,13 21,4 41,13 61,20 73,26 71,28 142,8 8,-2 15,-4 22,-4 26,-1 104,-29 133,-38 25,-8 51,-14 77,-20l-69 -77c-7,4 -13,8 -21,10l-14 5c-10,3 -19,7 -24,10 -16,10 -100,31 -121,38 -42,13 -57,-2 -87,-22 -2,-2 -5,-3 -7,-4 -19,-10 -135,-69 -159,-81l-140 145c0,11 2,48 2,66 0,10 3,35 8,66 11,77 14,124 43,199 25,67 57,133 93,195 2,3 2,6 4,9z"/>
  <path class="fil4" d="M1050 629l-21 20c0,0 -6,6 -12,0 -6,-6 0,-13 0,-13l21 -20c0,0 7,-4 12,2 6,6 0,11 0,11z"/>
  <polygon class="fil3" points="821,461 838,463 837,443 814,439 "/>
  <path class="fil0" d="M873 628l3 -1c0,0 5,11 9,24 3,8 9,25 9,33 0,11 -7,48 -10,62 -3,15 -21,58 -32,100 -11,42 -24,54 -33,56 -14,3 -40,3 -56,3l-8 -11c0,-2 1,-4 1,-8 0,-16 8,-36 22,-45l9 -5c2,-1 9,-6 10,-8 3,-6 22,-130 22,-138 0,-6 -13,-27 -16,-32l70 -30z"/>
  <path class="fil4" d="M774 891c14,0 38,0 42,-1 2,0 13,-5 24,-47 11,-42 29,-85 32,-100 3,-15 9,-50 9,-60 0,-8 -14,-44 -17,-51l-49 20c2,3 5,7 7,13 3,6 9,17 9,24 0,9 -20,135 -23,143 -3,6 -10,11 -15,14l-9 5c-10,7 -16,22 -16,34l5 5z"/>
  <path class="fil4" d="M698 299c-15,17 -6,37 4,49 0,0 5,7 12,14 9,10 30,30 45,34 6,2 12,1 21,-7 19,-18 -11,-58 -22,-72 -20,-25 -45,-34 -59,-18z"/>
  <path class="fil0" d="M723 340l8 11c0,0 4,4 0,8 -4,3 -8,-1 -8,-1l-8 -11c0,0 -4,-4 0,-7 4,-3 8,1 8,1z"/>
  <polygon class="fil0" points="1065,230 1067,365 1054,365 1052,230 "/>
  <path class="fil0" d="M1105 300l-2 51c-4,0 -9,0 -13,0l2 -54 13 3z"/>
  <path class="fil0" d="M1107 251l-2 49 -13 -3 1 -41c-49,10 -95,27 -142,46 -16,6 -29,12 -38,18 -34,21 -103,101 -138,138 -14,15 -25,27 -28,31 -9,16 15,155 18,173l88 -38 -74 -54 8 -10 156 111 140 -149 -116 -111c31,-35 76,-56 123,-60 4,0 9,-1 13,-1l0 7 -13 -1 0 -6c-47,3 -92,25 -123,60l116 111 -140 149 -156 -111 -8 10 74 54 -88 38c-3,-18 -27,-157 -18,-173 2,-4 13,-16 28,-31 34,-37 103,-117 138,-138 10,-6 23,-12 38,-18 46,-19 93,-36 142,-46l-1 41 2 -46 13 1z"/>
  <path class="fil5" d="M1401 266c-1,3 -2,7 -4,10 -3,9 -54,168 -63,199 -2,8 -7,24 0,32l6 5c7,6 103,31 121,37 23,9 32,2 35,-7 5,-14 54,-179 62,-211 6,-26 5,-21 -10,-33 -12,-9 -99,-37 -126,-43 -13,-3 -17,-1 -21,10z"/>
  <polygon class="fil0" points="1494,586 1558,668 1548,676 1484,594 "/>
  <polygon class="fil0" points="1174,1133 1085,1191 1078,1180 1167,1122 "/>
  <path class="fil1" d="M3174 898l108 -88c0,0 17,16 23,22 10,11 21,24 10,39l-4 4 -11 12 -4 4 7 10c1,15 -14,25 -28,19l-2 -3c-13,14 -25,27 -38,41 17,20 36,47 52,69 28,39 15,56 -9,79 -6,6 -34,30 -62,53 -28,24 -58,48 -67,57 -19,18 -257,232 -296,261 -52,39 -74,7 -96,-36 -14,-27 -25,-54 -38,-82l-13 12 -23 -24 17 -17c-8,-17 -17,-44 -2,-64 15,-20 39,-48 55,-66 9,-10 93,-86 173,-157 81,-72 161,-143 161,-143l13 -9c32,-20 54,-13 74,7zm252 312l-46 29 75 48 -9 16 -140 -65 45 -25 -84 -52 8 -16 150 66zm-50 121l-42 23 46 64 -14 12 -105 -100 44 -12 -48 -66 13 -12 105 91zm-179 68l-51 -16 -2 85 -18 1 -26 -149 44 17 -3 -76 18 -3 39 140z"/>
  <path class="fil0" d="M3105 897c34,-22 53,-8 75,21l-474 439 -11 -11 16 -16c-9,-17 -18,-43 -6,-60 15,-20 39,-47 54,-65 8,-10 92,-85 172,-156 81,-72 160,-143 160,-143 12,-8 0,0 12,-8z"/>
  <path class="fil3" d="M2723 1320l435 -404c-19,-18 -27,-18 -45,-6l-11 7c-6,5 -82,73 -160,142 -81,73 -164,147 -171,155 -16,18 -39,45 -54,64 -8,11 0,30 5,41z"/>
  <path class="fil0" d="M2782 1248l-14 14c0,0 -4,4 -10,-1 -5,-5 -1,-10 -1,-10l14 -14c0,0 5,-3 10,2 4,6 1,9 1,9z"/>
  <path class="fil0" d="M2745 1395c-14,-30 -29,-63 -29,-63l455 -428c0,0 8,10 12,15 5,5 11,11 19,17 17,14 52,60 77,95 24,34 14,45 -8,68 -6,6 -34,29 -62,52 -28,24 -58,48 -68,57 -20,18 -257,232 -295,261 -19,14 -40,25 -58,5 -18,-21 -33,-56 -44,-79z"/>
  <path class="fil5" d="M2792 1454c4,4 9,13 15,15 4,1 12,1 31,-12 37,-28 274,-241 294,-260 10,-9 40,-34 68,-58 1,-1 71,-56 76,-69 2,-5 3,-14 -9,-31 -26,-36 -58,-80 -74,-92 -10,-8 -18,-16 -23,-22l-435 409c10,22 49,109 57,119z"/>
  <path class="fil0" d="M3150 1167c-12,8 -27,13 -40,3 0,0 -4,-5 -9,-12 -16,-22 -36,-60 -36,-87 0,-20 48,-56 60,-68 18,-17 46,-43 67,-20 15,15 26,36 38,53 17,25 15,44 3,57 -9,9 -68,65 -82,74z"/>
  <path class="fil3" d="M3142 1155c12,-8 70,-63 79,-72 5,-5 10,-15 -5,-37 -7,-11 -29,-47 -40,-55 -16,-3 -80,57 -92,72 -4,5 -5,8 -5,9 0,27 24,66 41,87 4,2 10,3 21,-4z"/>
  <path class="fil0" d="M3016 1117l23 32c0,0 3,4 -3,8 -6,4 -9,1 -9,1l-23 -32c0,0 -3,-6 4,-9 6,-4 9,0 9,0z"/>
  <polygon class="fil3" points="3149,1260 3184,1384 3137,1369 3135,1466 3112,1333 3153,1350 "/>
  <polygon class="fil3" points="3264,1246 3360,1328 3320,1350 3372,1422 3279,1333 3320,1323 "/>
  <polygon class="fil6" points="3271,1151 3406,1210 3363,1237 3449,1293 3326,1235 3368,1211 "/>
  <path class="fil0" d="M2934 1192l23 32c0,0 3,4 -3,8 -6,4 -9,1 -9,1l-23 -32c0,0 -3,-6 4,-9 6,-4 9,0 9,0z"/>
  <path class="fil0" d="M3029 1206l23 32c0,0 3,4 -3,8 -6,4 -9,1 -9,1l-23 -32c0,0 -3,-6 4,-9 6,-4 9,0 9,0z"/>
  <path class="fil0" d="M2899 1280l23 32c0,0 3,5 -3,8 -6,4 -9,1 -9,1l-23 -32c0,0 -3,-6 4,-9 6,-4 9,0 9,0z"/>
  <path class="fil0" d="M2814 1296l23 32c0,0 3,4 -3,8 -6,4 -9,1 -9,1l-23 -32c0,0 -3,-6 4,-9 6,-4 9,0 9,0z"/>
  <path class="fil0" d="M2808 1381l23 32c0,0 3,4 -3,8 -6,4 -9,1 -9,1l-23 -32c0,0 -3,-6 4,-9 6,-4 9,0 9,0z"/>
  <path class="fil0" d="M3172 917l-4 -4 113 -92c0,0 11,10 17,16 7,7 17,17 9,27l-3 4 -11 12c-24,27 -48,53 -73,79l2 2 -8 4 -46 -46 3 -2z"/>
  <path class="fil3" d="M3294 857c-2,-3 -5,-6 -7,-9l-6 -6 -98 80 27 28c6,-7 24,-25 42,-45 11,-12 22,-24 31,-34l10 -12 2 -2z"/>
  <path class="fil0" d="M3258 850l36 54c0,0 0,3 -5,7 -5,3 -8,2 -8,2l-36 -53 13 -9z"/>
  <polygon class="fil0" points="3228,881 3244,917 3233,930 3214,888 "/>
  <path class="fil1" d="M887 1372c0,0 2,4 1,9 -3,13 -26,23 -32,9l-33 -53c0,0 0,-6 1,-9 5,-12 19,-15 30,-11l34 54zm-153 34c0,0 -2,4 -5,7 -11,10 -28,4 -31,-11l6 -55c0,0 4,-5 7,-6 11,-7 23,0 29,9l-6 56zm-141 -19c0,0 -5,2 -9,1 -15,-1 -24,-17 -14,-29l62 -53c0,0 3,-3 8,-3 15,-1 25,18 16,30l-63 54zm392 -160c18,5 13,39 -6,36l-108 -17c0,0 -4,-2 -7,-6 -2,9 -4,19 -6,27 -7,36 -22,57 -64,55 -31,-1 -100,-4 -125,-20 -12,-8 -21,-20 -21,-39l-38 -3c-14,-1 -23,-8 -29,-17l-93 54c0,0 -5,0 -9,-1 -13,-5 -20,-21 -8,-31l89 -50c0,0 5,-1 9,0 3,-2 3,-5 3,-7 0,-7 0,-15 1,-22 -2,3 -6,6 -11,7l-116 -7c0,0 -5,-4 -6,-7 -6,-11 -3,-27 10,-29l116 7c0,0 5,3 7,6 1,2 2,3 3,5 2,-13 4,-25 7,-37 3,-13 7,-25 12,-36 -6,3 -14,3 -19,-3l-64 -79c0,0 -2,-5 -1,-9 1,-15 17,-21 29,-14l64 79c0,0 3,3 3,8 8,-4 20,-7 36,-6 38,4 133,6 160,32 11,11 14,27 12,46 9,2 17,4 20,6 27,10 32,36 31,62 3,-3 6,-6 11,-7l109 17zm-336 -243c0,0 1,-5 3,-8 9,-11 26,-7 33,4l5 70c0,0 -1,5 -3,8 -9,14 -27,8 -33,-5l-5 -70zm96 59l1 -6 2 -16 4 -25c0,0 2,-5 6,-7 11,-6 24,1 30,11l-4 26 -2 16 -1 6c-3,21 -39,20 -36,-1l0 -4zm101 -7l31 -28c0,0 3,-3 8,-4 16,-3 25,16 18,29l-32 29c0,0 -30,28 -35,32 0,0 -4,2 -8,2 -16,0 -22,-19 -15,-31 7,-5 31,-28 34,-31zm77 68c0,0 5,0 9,1 15,5 17,21 7,32l-60 29c0,0 -5,-1 -9,-2 -13,-7 -16,-20 -6,-31l59 -28z"/>
  <path class="fil0" d="M876 1220l106 16c0,0 5,1 4,10 -1,9 -7,8 -7,8l-106 -16c0,0 -5,-3 -4,-9 1,-7 7,-9 7,-9z"/>
  <path class="fil0" d="M868 1141l56 -27c0,0 7,0 10,5 3,6 -2,11 -2,11l-56 27c0,0 -5,-1 -9,-6 -4,-5 1,-10 1,-10z"/>
  <path class="fil0" d="M818 1074c4,-3 63,-58 63,-58 0,0 5,-4 10,1 5,6 2,12 2,12l-31 28c-15,14 -32,29 -34,31 0,0 -5,3 -10,-3 -4,-6 -1,-12 -1,-12z"/>
  <path class="fil0" d="M753 1049l0 -4 1 -6 2 -16 4 -23c0,0 2,-4 9,-3 7,1 9,5 9,5l-4 23 -2 16 -1 6 0 1c0,0 -2,6 -11,6 -8,0 -8,-6 -8,-6z"/>
  <path class="fil0" d="M662 1053l-5 -67c0,0 1,-5 8,-6 7,0 10,4 10,4l5 67c0,0 -1,7 -8,7 -7,0 -10,-6 -10,-6z"/>
  <path class="fil0" d="M582 1087l-63 -78c0,0 -2,-6 3,-10 5,-4 11,-1 11,-1l63 78c0,0 4,4 -3,10 -7,6 -11,2 -11,2z"/>
  <path class="fil0" d="M561 1184l-112 -6c0,0 -4,-4 -4,-10 0,-7 5,-8 5,-8l112 7c0,0 5,4 5,10 0,7 -6,8 -6,8z"/>
  <path class="fil0" d="M572 1240l-87 49c0,0 -5,0 -10,-6 -5,-6 1,-10 1,-10l87 -49c0,0 5,-1 9,4 3,5 0,11 0,11z"/>
  <path class="fil0" d="M648 1327l-61 52c0,0 -5,2 -11,-3 -5,-5 -1,-11 -1,-11l61 -52c0,0 5,-4 10,2 5,6 2,11 2,11z"/>
  <path class="fil0" d="M730 1353l-5 51c0,0 -2,5 -10,5 -7,0 -9,-7 -9,-7l5 -51c0,0 4,-5 10,-3 6,1 9,5 9,5z"/>
  <path class="fil0" d="M847 1325l32 51c0,0 2,5 -5,9 -8,5 -10,0 -10,0l-32 -51c0,0 0,-5 5,-8 6,-3 10,-1 10,-1z"/>
  <path class="fil0" d="M595 1113c7,-22 19,-35 45,-32 31,3 131,6 154,30 10,10 12,25 7,48 -1,4 -2,10 -3,16 -39,-9 -107,-22 -116,-14 0,0 -1,1 -1,4 -1,3 -1,7 -2,12 0,0 -6,53 -6,81 -21,-2 -43,-3 -64,-5 -22,-2 -29,-22 -29,-44 0,-25 5,-52 10,-76 2,-7 3,-13 5,-19z"/>
  <path class="fil0" d="M785 1153c21,5 39,9 45,12 38,14 24,73 18,103 -6,33 -19,49 -55,48 -21,-1 -97,-4 -120,-19 -9,-6 -17,-16 -17,-31 0,-7 0,-16 1,-27 32,2 63,5 95,5 17,0 19,-21 22,-33 2,-9 9,-36 11,-57z"/>
  <path class="fil4" d="M613 1119c4,-13 9,-22 26,-20 24,3 126,7 143,24 4,4 4,16 3,29 -27,-6 -58,-11 -78,-12 -18,-1 -38,-1 -42,20 -1,4 -1,8 -2,14 0,0 -4,35 -6,64l-45 -4c-6,0 -12,-5 -12,-26 0,-10 2,-29 5,-44 2,-16 5,-29 5,-29 1,-6 3,-12 5,-17z"/>
  <path class="fil0" d="M774 1210c1,-7 5,-23 8,-39l17 4c-4,25 -10,61 -22,75 -8,9 -16,11 -26,11 -26,0 -52,-1 -77,-3 0,-5 0,-12 1,-18 26,2 51,3 77,3 17,0 19,-21 22,-33z"/>
  <path class="fil4" d="M782 1171c-3,16 -7,32 -8,39 -3,12 -6,33 -22,33 -26,0 -51,-1 -77,-3 2,-28 6,-63 6,-63 1,-5 1,-9 2,-12 1,-3 1,-4 1,-4 7,-7 59,2 98,10z"/>
  <path class="fil0" d="M785 1153c-1,6 -2,12 -3,18 -39,-8 -91,-17 -98,-10 0,0 -1,1 -1,4 -1,3 -1,7 -2,12 0,0 -4,35 -6,63l-18 -1c2,-29 6,-64 6,-64 1,-5 1,-10 2,-14 5,-21 24,-21 42,-20 20,1 51,6 78,12z"/>
  <path class="fil4" d="M777 1250c11,-13 17,-50 22,-75 12,3 21,5 25,7 8,3 16,10 13,41 -3,21 -3,52 -17,69 -11,13 -99,0 -116,-3 -14,-3 -28,-6 -29,-23l0 -6c26,2 52,3 77,3 10,0 18,-2 26,-11z"/>
  <path class="fil0" d="M711 1196l30 4c0,0 5,2 4,10 -1,8 -6,8 -6,8l-30 -4c0,0 -4,-2 -3,-9 1,-8 6,-9 6,-9z"/>
  <path class="fil1" d="M1714 2165c2,0 5,0 8,-1 20,-2 224,-12 256,-14l82 -81 -2 181 -79 -63c-32,2 -235,12 -255,14 -21,2 -62,0 -51,-35l1 -4c10,-24 27,-45 35,-71 -2,-3 -5,-3 -8,-3l-9 0c-8,0 -16,1 -23,1l-31 0 40 25 -209 94 6 6c20,19 25,64 26,78 0,17 12,55 -17,58l-4 0 -10 1 -30 1c-35,1 -131,2 -158,19 -21,13 -40,59 -50,82 -17,-20 -28,-36 -41,-61 -24,-48 -80,-42 -123,-42 -29,1 -58,2 -76,2 -32,1 -28,-30 -29,-50 -1,-42 62,-105 99,-126l-210 -142 445 -161 284 179 87 -1c6,0 14,-1 23,-1 94,-2 44,68 22,112z"/>
  <polygon class="fil0" points="1298,1886 1661,2115 1257,2298 875,2040 "/>
  <path class="fil0" d="M1095 2175c22,-9 40,-13 40,-13l4 18 -16 5 135 91 188 -83c0,0 6,9 10,13 4,4 9,11 15,17 17,16 23,58 23,71 0,11 10,47 -9,49l-3 0 -10 1 -30 1c-37,1 -133,2 -163,21 -20,13 -38,51 -47,73 0,0 -15,-18 -30,-48 -13,-25 -41,-41 -60,-44 -30,-5 -112,-1 -148,0 -23,0 -19,-26 -19,-41 0,-19 16,-45 51,-85 19,-22 47,-36 69,-45z"/>
  <polygon class="fil0" points="2052,2091 2051,2231 1973,2169 "/>
  <polygon class="fil3" points="2034,2135 2001,2168 2033,2194 "/>
  <path class="fil3" d="M1101 2192c-20,8 -45,21 -62,40 -36,41 -47,61 -47,72 0,5 -1,18 0,23 38,-1 119,-6 152,0 23,4 57,23 73,54 4,9 8,15 11,20 38,-71 75,-68 150,-73 14,-1 40,-2 63,-2l30 -1 7 0 0 -6c-1,-8 -2,-18 -2,-25 0,-14 -7,-48 -17,-59 -8,-8 -15,-16 -19,-21l-184 81 -155 -104z"/>
  <polygon class="fil3" points="1296,1906 915,2045 1259,2277 1623,2112 "/>
  <path class="fil0" d="M1702 2173c4,1 11,1 22,0 22,-2 260,-14 260,-14l1 18c0,0 -237,12 -259,14 -14,1 -50,3 -42,-23l1 -3c11,-24 27,-45 35,-71 6,-18 -15,-14 -26,-14 -8,0 -15,1 -23,1 -29,0 -395,6 -395,6l0 -18c0,0 367,-5 395,-6 24,0 81,-9 66,37 -8,27 -25,48 -36,73l0 1z"/>
  <path class="fil0" d="M1289 2053l-2 48c0,0 -1,4 -9,4 -8,0 -9,-5 -9,-5l2 -48c0,0 3,-5 10,-5 7,0 8,6 8,6z"/>
  <path class="fil1" d="M984 1764l-263 93 10 25 -34 13 -10 -26 -168 60c0,0 -14,-26 -22,-43 -27,-58 -41,-120 -56,-181l41 -12c-19,-75 -35,-150 -35,-228l0 -8c0,0 55,-8 121,-18l-3 -20 36 -6 4 20c88,-13 193,-29 256,-40 122,-21 362,-74 362,-74 0,0 0,53 4,94 11,134 46,214 131,318l-219 116 6 12 -32 17 -6 -12 -44 28 -76 -127z"/>
  <path class="fil0" d="M859 1400c122,-21 352,-72 352,-72 0,0 0,42 4,83 11,128 45,214 126,314l-217 115 6 12 -16 9 -69 -129 -523 185c0,0 -10,-19 -18,-36 -26,-55 -39,-113 -53,-171l41 -12c-20,-77 -37,-154 -37,-235 0,0 283,-41 406,-62z"/>
  <path class="fil5" d="M1114 1824l198 -104c-91,-120 -116,-223 -119,-369 -46,10 -224,49 -331,67 -110,19 -344,53 -390,60 2,79 21,155 41,231l-41 12c16,62 29,114 58,172l523 -185 61 116z"/>
  <path class="fil0" d="M524 1464c0,0 17,122 30,190 14,68 69,216 69,216l-17 6c0,0 -57,-151 -70,-219 -14,-68 -30,-191 -30,-191l18 -2z"/>
  <path class="fil0" d="M668 1532l67 -20c0,0 5,-1 7,7 2,8 -2,10 -2,10l-67 20c0,0 -6,1 -8,-7 -2,-8 3,-11 3,-11z"/>
  <polygon class="fil0" points="1062,1876 979,1738 1051,1708 1122,1838 "/>
  <polygon class="fil0" points="1076,1507 1214,1469 1238,1556 1103,1596 "/>
  <polygon class="fil5" points="1068,1851 1098,1831 1043,1731 1005,1747 "/>
  <polygon class="fil3" points="1099,1520 1115,1573 1216,1544 1201,1491 "/>
  <path class="fil0" d="M697 1657l67 -20c0,0 5,-1 7,7 2,8 -2,10 -2,10l-67 20c0,0 -6,1 -8,-7 -2,-8 3,-11 3,-11z"/>
  <path class="fil0" d="M727 1754l67 -20c0,0 5,-1 7,7 2,8 -2,10 -2,10l-67 20c0,0 -6,1 -8,-7 -2,-8 3,-11 3,-11z"/>
  <path class="fil0" d="M904 1694l67 -20c0,0 5,-1 7,7 2,8 -2,10 -2,10l-67 20c0,0 -6,1 -8,-7 -2,-8 3,-11 3,-11z"/>
  <path class="fil0" d="M871 1600l67 -20c0,0 5,-1 7,7 2,8 -2,10 -2,10l-67 20c0,0 -6,1 -8,-7 -2,-8 3,-11 3,-11z"/>
  <path class="fil0" d="M846 1490l67 -20c0,0 5,-1 7,7 2,8 -2,10 -2,10l-67 20c0,0 -6,1 -8,-7 -2,-8 3,-11 3,-11z"/>
  <path class="fil0" d="M1005 1452l67 -20c0,0 5,-1 7,7 2,8 -2,10 -2,10l-67 20c0,0 -6,1 -8,-7 -2,-8 3,-11 3,-11z"/>
  <path class="fil0" d="M1119 1725l65 -25c0,0 5,-2 8,7 3,8 -1,10 -1,10l-65 25c0,0 -6,2 -8,-6 -3,-8 2,-11 2,-11z"/>
  <path class="fil0" d="M590 1421c0,0 26,150 47,227 21,77 80,228 80,228l-17 7c0,0 -59,-152 -80,-229 -21,-77 -47,-228 -47,-228l18 -3z"/>
  <path class="fil1" d="M1690 2273l293 -33 134 -15c157,-15 297,-30 305,-31 23,-3 68,12 88,26 28,21 29,77 8,130 -19,49 -42,97 -56,110 -17,17 -28,17 -47,17 -15,0 -189,20 -359,39 -18,42 -54,128 -57,138 0,1 -1,8 14,17 19,11 129,57 155,67l-5 32 -62 3 8 58c0,0 -62,-25 -96,-40 -44,-19 -166,-63 -142,-127 8,-20 38,-91 56,-134 -111,13 -198,22 -203,22l-4 0c-30,7 -147,-17 -171,-30 -13,-7 -30,-23 -23,-48 4,-14 20,-56 33,-91 -10,-1 -20,-3 -30,-4l4 -36c0,0 22,2 40,5l6 -17c31,-49 55,-63 111,-59z"/>
  <path class="fil0" d="M2056 2489c0,0 -63,149 -67,162 -2,7 2,18 19,28 17,10 149,65 149,65l-3 17 -64 4 7 53c0,0 -47,-19 -82,-34 -29,-12 -158,-58 -137,-116 11,-30 70,-167 70,-167l107 -11z"/>
  <path class="fil0" d="M1658 2282c41,-2 78,6 115,21 28,12 50,29 41,64 -13,57 -37,108 -70,156 -7,11 -17,20 -33,21 -20,2 -129,-13 -159,-30 -12,-7 -24,-19 -19,-37 7,-25 52,-141 52,-141 16,-25 38,-53 72,-55z"/>
  <path class="fil0" d="M2422 2204c20,-2 63,11 81,24 22,17 26,66 5,119 -20,51 -42,98 -54,107 -14,14 -23,14 -41,14 -29,0 -676,76 -691,76 -30,0 3,-31 7,-36 14,-17 35,-49 55,-108 36,-105 -81,-103 -86,-103l-1 -18c0,0 706,-73 724,-75z"/>
  <path class="fil4" d="M1762 2290l4 2c33,16 59,49 37,113 -21,60 -43,94 -58,113l-4 5c105,-11 647,-74 674,-74 7,0 18,1 23,-5 29,-28 93,-174 55,-203 -15,-11 -53,-23 -68,-21 -14,2 -490,51 -662,69z"/>
  <path class="fil4" d="M1659 2300c-22,1 -39,17 -56,45 -4,10 -44,114 -51,138 -9,32 152,45 159,44 19,-2 32,-36 42,-50 19,-26 36,-74 45,-113 8,-35 -31,-44 -56,-53 -33,-12 -56,-12 -82,-11z"/>
  <path class="fil3" d="M2028 2510l-66 7c-10,24 -56,130 -66,157 -15,40 114,87 127,93 20,9 40,17 53,22l-5 -41 44 -2 -32 -14c-35,-15 -73,-32 -83,-37 -19,-11 -33,-29 -27,-49 3,-11 41,-100 55,-135z"/>
  <path class="fil0" d="M1540 2354c0,0 14,2 32,4 22,3 69,11 91,20 36,15 12,52 -1,75 -6,10 -12,21 -21,24 -10,5 -48,8 -58,-5 -9,-12 -6,-25 9,-55 7,-14 28,-71 42,-80 21,-14 76,4 100,13 27,11 14,42 4,62 -11,24 -38,68 -46,80 -10,16 -28,30 -42,42l-12 -14c0,0 8,-7 17,-16 9,-9 18,-18 21,-23 9,-15 61,-95 54,-113l-4 -2c-16,-7 -70,-24 -82,-15 -6,5 -47,95 -48,103 -3,16 34,7 37,6 9,-4 26,-44 29,-53 6,-13 -16,-16 -25,-18 -34,-7 -66,-14 -101,-18l2 -18z"/>
  <path class="fil0" d="M2117 2234c0,0 13,5 27,11 46,20 72,42 49,99 -16,40 -72,154 -72,154l-107 8c0,0 53,-127 60,-151 4,-13 17,-45 4,-56 -19,-16 -73,-39 -98,-51l137 -14z"/>
  <path class="fil3" d="M2048 2259c63,32 63,40 44,100 -6,19 -37,94 -50,125l67 -5c10,-21 53,-108 67,-143 22,-56 -19,-68 -61,-84l-67 7z"/>
  <path class="fil0" d="M2308 2433c0,-6 3,-12 11,-12 8,0 16,6 16,11 0,6 -8,10 -16,10 -8,0 -11,-4 -11,-9z"/>
  <path class="fil0" d="M2349 2428c0,-6 3,-12 11,-12 8,0 16,6 16,11 0,6 -8,10 -16,10 -8,0 -11,-4 -11,-9z"/>
  <path class="fil0" d="M2386 2425c0,-6 3,-12 11,-12 8,0 16,6 16,11 0,6 -8,10 -16,10 -8,0 -11,-4 -11,-9z"/>
  <path class="fil1" d="M3166 2346l-3 11c-4,11 -7,16 -12,20l-4 4c-9,8 -20,42 -29,56l-4 4c-7,7 -17,7 -23,-1 -1,-1 -20,-29 -38,-58 -11,-18 -23,-35 -34,-54l-3 -5c-1,-3 -2,-6 -2,-9 0,-14 20,-35 37,-36 5,0 8,-3 10,-7l4 -5c7,-8 16,-18 34,-21 1,-3 2,-6 3,-9 6,-16 16,-23 32,-26 2,-1 3,-2 4,-4l1 -4c-17,-24 -13,-42 -3,-68 23,-26 38,-23 63,-5l5 -6c11,-13 32,5 20,20l-3 4c28,25 47,49 20,82l-5 6 0 7c-1,22 -4,27 -21,40l-9 7c-12,17 -1,34 -27,48l-7 4 -7 4 -1 1z"/>
  <path class="fil1" d="M2840 1653l5 -3c0,0 14,27 22,43 24,49 41,101 59,152l9 -4 8 -3 12 31c0,0 -9,4 -18,7 8,21 17,43 28,63 5,9 7,16 8,21 21,3 42,2 63,2l3 0 -3 -9c-13,-43 -35,-139 -38,-159 -3,-18 -13,-33 -22,-49l33 -9 0 -6c0,-7 1,-17 4,-24 6,-19 38,-28 50,-28 15,0 32,7 32,27 0,4 0,11 -1,18 5,48 14,160 30,200 16,41 41,86 41,86 7,35 8,51 -7,84 -14,29 -64,128 -75,139 -10,10 -27,25 -57,32 -26,7 -148,34 -168,38 -18,3 -46,-2 -74,-10l-52 81 -160 -92 48 -65c-3,-8 -1,-16 -1,-24 0,-14 12,-43 31,-41l4 1c4,1 8,2 13,3l39 -52 164 55 -30 47 17 5 9 -4c8,-3 18,-8 29,-13l45 -20 -52 -13c-48,-12 -103,-27 -113,-32 -11,-6 -131,-44 -178,-58l-3 14 -33 -9 7 -23c-24,-8 -65,-22 -73,-23 -9,-1 -115,5 -129,7 -13,2 -155,16 -155,16l-2 -29 29 -1 -49 -59 21 -18 30 33c32,-6 157,-27 214,-30 48,-2 111,5 143,10l16 -51c19,-60 41,-129 48,-139 19,-25 15,-41 53,-55 10,-4 26,-11 44,-19 -5,-19 -13,-40 -23,-52 -12,-13 -68,-72 -112,-118l-22 -1 1 -21 -40 -42 21 -20 21 24 5 -100 28 1 -2 69c20,18 96,90 112,106 18,18 68,69 75,78 7,9 13,22 19,34z"/>
  <polygon class="fil0" points="2588,2279 2710,2114 2857,2163 2731,2361 "/>
  <polygon class="fil4" points="2741,2135 2714,2126 2603,2275 2634,2290 "/>
  <polygon class="fil5" points="2728,2347 2841,2169 2754,2136 2641,2295 "/>
  <path class="fil0" d="M3056 1974c-3,-7 -7,-15 -9,-24 -13,-42 -34,-138 -38,-158 -3,-16 -9,-28 -17,-42l96 -27c4,46 15,167 30,204 16,42 41,86 41,86 6,31 8,46 -7,77 -14,30 -64,127 -73,136 -9,9 -25,23 -53,30 -26,7 -148,34 -167,38 -43,7 -156,-38 -191,-51l46 -67c0,0 137,42 144,44 2,1 75,-33 111,-50 -19,-5 -47,-12 -77,-19 -49,-13 -102,-27 -111,-31 -13,-7 -153,-51 -189,-62l-3 14 -15 -4 11 -37c0,0 18,-61 38,-124 19,-61 41,-128 47,-136 17,-22 15,-39 49,-52 31,-11 124,-58 124,-58 0,0 10,19 18,35 39,80 59,167 99,247 6,12 8,20 9,25 23,5 48,3 70,3 6,0 12,1 18,3z"/>
  <path class="fil0" d="M2744 1634c-12,-14 -76,-81 -122,-128 -26,-27 -46,-48 -46,-48l8 -7 30 34 9 10 0 17 -10 0 1 -27 5 -114 10 0 -2 64c13,12 98,92 115,108 18,18 68,69 74,78 10,12 19,36 25,51l-69 33c-5,-23 -13,-55 -29,-72z"/>
  <path class="fil0" d="M2497 2019c-11,-1 -118,5 -131,7 -13,2 -146,15 -146,15l-1 -10 38 -1 -55 -67 8 -7 27 30c21,-4 157,-27 218,-30 66,-3 161,12 161,12l-32 80c-14,-5 -77,-27 -88,-28z"/>
  <path class="fil0" d="M3021 1730c0,-7 1,-16 3,-22 4,-13 30,-21 41,-21 13,0 23,6 23,18 0,8 -2,32 -2,32l-66 15 0 -6c0,-2 0,-8 0,-16z"/>
  <path class="fil0" d="M2683 2171c15,5 35,13 35,13l-37 54c0,0 -11,-3 -20,-6 -14,-4 -31,-7 -32,-25 0,-5 1,-10 1,-14 0,-8 9,-33 20,-32l3 1c10,2 20,6 29,9z"/>
  <path class="fil3" d="M2598 2043c20,6 53,17 84,27 47,15 98,32 106,36 7,3 57,17 108,30 50,13 119,30 119,30 0,0 -52,25 -85,40 -21,9 -42,19 -63,27l-6 2c-3,1 -6,1 -7,0 -6,-1 -109,-33 -134,-41l-28 41c28,10 129,49 165,43 19,-3 140,-31 166,-37 24,-6 38,-18 46,-26 7,-7 55,-100 70,-132 13,-27 11,-38 6,-65 -44,-81 -51,-111 -62,-202 -4,-31 -6,-59 -8,-73l-59 17c4,9 8,19 9,30 3,19 24,114 37,156 7,22 22,50 38,67l-11 11c0,0 -15,-15 -23,-25 -6,-8 -18,-12 -27,-12 -13,0 -72,2 -80,-4 -3,-2 -4,-5 -5,-8l-1 -3c-1,-4 -2,-11 -8,-22 -40,-79 -60,-167 -99,-247 -4,-8 -8,-16 -10,-21 -21,11 -86,43 -112,52 -18,7 -26,18 -34,34l-4 6c-17,30 -41,115 -48,137 -20,63 -38,124 -38,124l-2 7z"/>
  <polygon class="fil0" points="3036,2070 3150,2083 3112,2162 "/>
  <polygon class="fil4" points="3073,2090 3109,2134 3127,2096 "/>
  <path class="fil4" d="M2625 1449l-2 44c46,47 116,120 129,135 14,16 23,43 28,64l48 -23 -7 -15c-5,-11 -10,-21 -13,-25 -6,-8 -56,-59 -74,-77 -15,-15 -85,-80 -109,-103z"/>
  <path class="fil4" d="M2244 1995l25 30c39,-4 89,-9 96,-10 13,-2 122,-8 134,-6 6,1 28,8 47,14l33 11 23 -58c-21,-3 -91,-13 -146,-10 -56,3 -178,24 -213,30z"/>
  <path class="fil4" d="M3031 1731l0 9 46 -11c0,-6 1,-18 1,-23 0,-4 -3,-8 -13,-8 -11,0 -30,8 -32,14 -1,4 -2,12 -3,19z"/>
  <path class="fil4" d="M2650 2171c-2,1 -9,14 -9,22 0,5 -3,19 2,22 6,4 26,9 34,12l25 -37c-15,-5 -50,-19 -52,-18z"/>
  <path class="fil0" d="M2758 2102l40 -133 39 -2 -6 -41c20,-16 45,-36 63,-53 9,-9 33,-20 46,-24l6 14c0,0 -8,3 -17,8 -23,11 -38,27 -57,43l-23 19 7 50 -45 2 -37 122 -15 -4z"/>
  <path class="fil4" d="M2887 2012c0,-4 6,-6 11,-6 4,0 8,4 8,8 0,5 -3,8 -8,8 -4,0 -11,-6 -11,-10z"/>
  <path class="fil4" d="M2933 2036c0,-4 6,-6 11,-6 4,0 8,4 8,8 0,4 -3,8 -8,8 -4,0 -11,-6 -11,-10z"/>
  <path class="fil4" d="M2982 2051c0,-4 6,-6 11,-6 4,0 8,4 8,8 0,5 -3,8 -8,8 -4,0 -11,-6 -11,-10z"/>
  <path class="fil0" d="M3203 2142c0,0 9,-11 11,-14 3,-4 11,3 6,9 -5,6 -9,14 -9,14l-8 -9z"/>
  <path class="fil0" d="M3184 2127c18,10 58,41 64,65 4,16 -9,29 -19,41 -11,13 -20,18 -36,7 -19,-13 -52,-47 -53,-65 -1,-12 3,-26 7,-37 9,-10 22,-20 37,-11z"/>
  <path class="fil0" d="M3149 2209c2,-4 5,-16 5,-16 0,0 16,15 27,25 11,10 22,19 25,20 7,2 21,-14 25,-17 0,0 0,17 0,22 -1,19 -2,22 -17,33l-9 7 -3 3c-8,9 -4,32 -17,41 -4,3 -21,11 -23,14 0,1 -1,2 -2,5l-3 9c-6,20 -12,14 -19,27 -9,16 -14,34 -24,50l-3 3c-4,3 -7,2 -9,-1 -1,-1 -20,-29 -38,-57 -11,-17 -23,-35 -33,-53l-2 -5c-1,-2 -1,-4 -1,-4 0,-9 16,-26 28,-27 21,-1 19,-28 50,-33 13,-2 4,-25 29,-33 11,-3 13,0 17,-11z"/>
  <path class="fil4" d="M3178 2136c-8,-5 -15,-1 -23,7 -3,9 -6,21 -6,31 1,13 50,70 64,60 5,-4 13,-15 18,-20 13,-16 5,-22 -3,-35 -6,-10 -38,-35 -50,-43z"/>
  <path class="fil3" d="M3220 2243c-4,3 -11,6 -17,4 -6,-2 -18,-13 -29,-22l-15 -13c-11,27 -29,8 -37,31 -3,9 -6,19 -18,21 -26,5 -24,31 -51,33 -7,1 -19,14 -19,17 3,6 7,12 11,17 19,31 39,61 59,91l3 -6c7,-14 18,-46 31,-54 3,-2 5,-9 6,-12l3 -9c5,-15 18,-15 29,-24 9,-7 5,-31 17,-41l4 -3 9 -7c12,-9 12,-9 13,-24z"/>
  <path class="fil7" d="M3193 2175c6,-6 23,12 17,18 -6,6 -23,-12 -17,-18z"/>
  <path class="fil1" d="M3021 634c0,1 1,3 0,5l-1 12c-5,40 -11,81 -18,121 -6,35 -37,98 -53,132l12 15 -29 22 -10 -13c-19,32 -56,51 -92,29 -25,-16 -85,-73 -123,-111l-15 -14 -12 12 7 6 7 6 -24 27c0,0 -8,-7 -16,-14l-12 11 46 50 17 18 44 9 -7 34c7,13 -6,28 -19,27l-3 0 -12 -1 -35 -2c-47,-3 -91,-7 -137,-15l-10 -2 -4 -1c-12,-3 -27,-24 -33,-33l-24 -2 2 -31c-10,-12 -51,-58 -97,-109 -60,-67 -119,-136 -180,-203 -7,-8 -12,-14 -15,-18 -10,-14 -12,-35 12,-35 5,0 46,7 83,14 35,6 78,9 111,20 7,3 13,6 18,12l72 79 8 -9 -22 -22 26 -26 20 21 3 -4c-21,-21 -42,-43 -62,-65 -102,-112 -40,-122 25,-202 24,-30 125,-128 183,-174 30,-23 63,-44 105,-28 8,3 16,7 24,11 0,0 20,17 43,39 22,21 50,49 69,73 37,48 95,163 117,220 12,31 17,73 14,108l0 0z"/>
  <path class="fil0" d="M2751 192c8,3 15,7 22,10 0,0 19,16 42,37 22,21 50,48 68,72 36,47 94,161 115,217 14,35 18,85 12,122 0,0 -19,63 -41,128 -21,64 -47,135 -59,149 -23,27 -47,38 -76,20 -24,-15 -83,-72 -121,-110 -19,-19 -65,-63 -109,-104 -53,-50 -106,-100 -155,-154 -47,-52 -72,-81 -21,-140 16,-19 35,-36 46,-50 23,-29 124,-127 182,-172 29,-23 59,-40 96,-26z"/>
  <path class="fil4" d="M2745 209c-30,-11 -55,5 -78,24 -57,45 -156,142 -179,169 -18,23 -74,69 -70,100 6,50 271,287 308,324 39,39 97,94 118,107 17,11 32,7 52,-17 20,-23 92,-256 97,-270 5,-35 2,-79 -11,-112 -21,-55 -78,-168 -113,-213 -32,-42 -96,-98 -105,-105 -7,-3 -13,-6 -19,-9z"/>
  <path class="fil0" d="M2691 262c8,-7 24,-22 34,-26 0,0 7,-2 15,-1 8,0 19,2 30,8 53,29 149,194 174,247 19,40 2,69 -19,91 -20,21 -154,148 -188,173 -27,20 -50,8 -69,-12 -29,-32 -67,-63 -98,-92 -26,-24 -96,-82 -110,-120 -4,-11 -6,-24 2,-35 10,-14 68,-87 87,-105 39,-39 82,-73 124,-109l18 -16z"/>
  <path class="fil5" d="M2703 275l-18 16c-41,36 -84,70 -123,108 -18,18 -75,89 -85,103 -8,12 11,38 17,46 7,9 47,47 88,85 32,30 70,60 99,93 13,14 26,24 45,10 33,-24 166,-149 186,-170 19,-20 30,-40 15,-71 -17,-35 -68,-123 -91,-154 -23,-32 -59,-76 -76,-85 -9,-5 -21,-7 -31,-5 -5,3 -15,11 -28,22z"/>
  <path class="fil0" d="M2733 298c0,0 72,85 89,108 17,23 53,72 53,72l-15 11c0,0 -35,-49 -52,-71 -17,-23 -88,-107 -88,-107l14 -12z"/>
  <path class="fil0" d="M2807 521c0,0 -60,-88 -71,-104 -18,-24 -39,-47 -59,-69l14 -12c0,0 12,14 26,29 40,46 72,96 106,146l-15 10z"/>
  <path class="fil0" d="M2641 384c0,0 46,53 61,73 16,20 57,71 57,71l-14 11c0,0 -41,-51 -57,-71 -16,-20 -61,-73 -61,-73l14 -12z"/>
  <path class="fil0" d="M2667 553c0,0 -10,-12 -22,-26 -25,-31 -47,-63 -71,-94l14 -11c0,0 33,41 43,57 14,22 33,43 50,63l-14 12z"/>
  <polygon class="fil0" points="2457,718 2529,637 2704,807 2610,895 "/>
  <polygon class="fil3" points="2481,719 2611,869 2677,807 2530,664 "/>
  <path class="fil0" d="M2480 648c0,0 18,18 39,39 32,33 60,68 93,99 8,7 30,27 36,36 6,10 32,33 32,34l-12 14c0,0 -7,-6 -15,-14 -12,-11 -21,-24 -32,-36 -21,-21 -46,-40 -64,-64 -25,-34 -59,-65 -89,-95l13 -13z"/>
  <path class="fil0" d="M2375 609c6,2 10,5 14,10 0,0 87,94 173,188 43,47 86,94 118,129l38 42 10 12 3 3c8,11 -7,16 -9,15l-3 0 -12 -1 -35 -2c-46,-3 -91,-6 -136,-15l-10 -2 -4 -1c-13,-4 -42,-51 -49,-59 -6,-8 -50,-57 -99,-112 -60,-67 -119,-136 -180,-203 -7,-7 -12,-13 -15,-17 -8,-11 -8,-20 5,-20 4,0 43,7 81,14 14,3 91,13 110,20z"/>
  <path class="fil3" d="M2204 597c62,68 122,138 183,207 49,54 94,105 101,114 11,16 22,32 34,47l4 4c1,0 2,1 3,1l9 2c45,8 89,12 134,14l35 2 -3 1 -38 -42c-96,-106 -193,-211 -290,-317 -3,-4 -6,-5 -24,-8 -9,-1 -50,-9 -89,-16l-58 -10z"/>
  <path class="fil4" d="M2296 639l23 28c0,0 2,9 -6,10 -8,1 -14,-5 -14,-5l-23 -28c0,0 -5,-10 6,-10 12,0 14,6 14,6z"/>
  <path class="fil4" d="M2379 679l23 28c0,0 2,9 -6,10 -8,1 -14,-5 -14,-5l-23 -28c0,0 -5,-10 6,-10 12,0 14,6 14,6z"/>
  <path class="fil4" d="M2495 784l23 28c0,0 2,9 -6,10 -8,1 -14,-5 -14,-5l-23 -28c0,0 -5,-10 6,-10 12,0 14,6 14,6z"/>
  <path class="fil4" d="M2404 751l23 27c0,0 2,9 -6,10 -8,1 -14,-5 -14,-5l-23 -28c0,0 -5,-10 6,-10 12,0 14,6 14,6z"/>
  <path class="fil4" d="M2498 860l23 28c0,0 2,9 -6,10 -8,1 -14,-5 -14,-5l-23 -28c0,0 -5,-10 6,-10 12,0 14,6 14,6z"/>
  <path class="fil4" d="M2586 892l23 27c0,0 2,9 -6,10 -8,1 -14,-5 -14,-5l-23 -28c0,0 -5,-10 6,-10 12,0 14,6 14,6z"/>
  <path class="fil0" d="M2888 694c30,-17 126,-61 126,-61 0,0 -15,105 -21,138 -6,32 -39,101 -55,134l9 13 -14 11c0,0 -62,-79 -84,-107 -15,-19 -46,-58 -24,-84 14,-16 45,-33 63,-44z"/>
  <path class="fil3" d="M2925 889c14,-29 46,-97 50,-122 4,-24 12,-77 16,-104 -13,6 -158,74 -156,92 1,13 6,27 28,55 14,17 42,54 62,79z"/>
  <path class="fil0" d="M2733 981c-1,0 -115,-23 -144,-23 -30,0 -118,-6 -118,-6l1 -18c0,0 87,6 116,6 39,0 107,15 147,23l-4 18z"/>
  <polygon class="fil4" points="2509,952 2612,959 2688,968 2714,995 2615,986 2528,976 "/>
  <path class="fil1" d="M2793 647l14 8c0,0 3,5 3,9 2,14 -8,25 -22,22l-13 -7c-6,-3 -12,-6 -18,-8 0,0 -3,-6 -3,-10 -2,-12 4,-24 17,-24 7,2 14,6 21,10zm-65 -26l14 8c0,0 3,5 3,9 2,14 -8,25 -22,22l-13 -7c-6,-3 -12,-6 -18,-8 0,0 -3,-6 -3,-10 -2,-12 4,-24 17,-24 7,2 14,6 21,10zm-73 -31l14 8c0,0 3,5 3,9 2,14 -8,25 -22,22l-13 -7c-6,-3 -12,-6 -18,-8 0,0 -3,-6 -3,-10 -2,-12 4,-24 17,-24 7,2 14,6 21,10zm-70 -28l14 9c0,0 2,5 3,9 2,14 -9,24 -23,21l-12 -8c-6,-3 -11,-7 -17,-9 0,0 -2,-6 -3,-10 -1,-12 6,-23 18,-23 7,3 14,7 20,11zm-73 -35l14 9c0,0 2,5 3,9 2,14 -9,24 -23,21l-12 -8c-6,-3 -11,-7 -17,-9 0,0 -2,-6 -3,-10 -1,-12 6,-23 18,-23 7,3 14,7 20,11zm-145 -54l14 9c0,0 2,5 3,9 2,14 -9,24 -23,21l-12 -8c-6,-3 -11,-7 -17,-9 0,0 -2,-6 -3,-10 -1,-12 6,-23 18,-23 7,3 14,7 20,11zm-58 -32l14 9c0,0 2,5 3,9 2,14 -9,24 -23,21l-12 -8c-6,-3 -11,-7 -17,-9 0,0 -2,-6 -3,-10 -1,-12 6,-23 18,-23 7,3 14,7 20,11zm55 -131c0,0 2,7 2,10 0,12 -6,21 -17,23l-31 -13c-18,38 -38,78 -46,92 -18,28 -35,34 -57,27 -12,-4 -192,-76 -206,-80l-13 -4 19 48c11,28 54,140 54,161 0,34 -37,18 -53,9l-11 -6c-10,-5 -27,-13 -35,-21 -10,-10 -42,-70 -55,-103 -12,-29 -58,-119 -70,-143 -33,-15 -198,-91 -216,-101 -33,-19 -64,-40 -64,-84l5 -6 3 -3c11,-13 30,-21 47,-21 24,0 36,-2 60,8 10,4 100,41 200,81l99 -39c52,-21 109,-43 117,-45 26,-6 46,3 68,13l9 4c39,18 23,43 -10,55 -19,7 -90,43 -140,69 79,32 142,57 147,58l12 3c10,3 14,2 18,-3 15,-18 53,-61 58,-66 11,-11 33,-11 47,-11 11,0 21,-2 32,0 14,3 26,14 17,35l-17 37 31 13z"/>
  <path class="fil5" d="M2162 142l-14 -10c-16,-7 -31,-16 -49,-12 -5,1 -57,24 -111,46 -55,26 -91,34 -106,42 16,10 70,30 92,37 0,0 34,-17 76,-38 41,-21 90,-46 103,-51 4,-1 7,-13 10,-14z"/>
  <path class="fil0" d="M1578 121c10,-9 23,-16 38,-16 23,0 34,-2 56,8 22,10 476,194 490,198l12 3c11,3 19,3 27,-6 15,-18 53,-61 57,-66 9,-9 30,-8 41,-8 13,0 53,-7 40,23 -7,15 -63,136 -78,160 -17,26 -29,29 -47,23 -12,-4 -192,-76 -206,-80 -7,-2 -20,-7 -32,-10 6,16 16,41 26,66 3,9 53,139 53,158 0,27 -44,-1 -51,-5 -8,-4 -26,-13 -32,-19 -8,-8 -39,-67 -53,-100 -13,-30 -63,-128 -72,-146 -25,-11 -200,-91 -218,-102 -38,-22 -59,-41 -59,-73 0,0 5,-7 7,-9z"/>
  <path class="fil4" d="M2036 564c-26,-83 -58,-163 -90,-244 0,0 55,19 68,23 14,4 194,76 207,80 14,5 18,-4 25,-16 14,-22 66,-134 76,-156 -6,0 -14,1 -23,1 -7,0 -20,0 -27,2 -5,4 -42,47 -57,65 -13,15 -28,17 -46,12l-12 -3c-16,-4 -471,-189 -493,-199 -19,-8 -29,-6 -49,-6 -9,0 -19,7 -26,13l1 2c0,0 0,-1 2,5 9,26 23,30 47,44 19,11 222,103 222,103 0,0 61,120 75,153 14,34 44,89 49,94 5,5 42,23 50,26z"/>
  <path class="fil0" d="M2157 145l-10 -5c-16,-7 -32,-16 -50,-12 -5,1 -59,22 -113,44 -54,21 -106,42 -106,42l-7 -17c0,0 52,-21 106,-42 53,-21 109,-43 115,-44 23,-6 42,3 62,13 9,5 35,12 23,28 -4,5 -12,10 -24,14 -23,8 -177,88 -177,88l-8 -16c0,0 39,-20 81,-41 41,-21 87,-43 99,-48 4,-1 7,-3 9,-4z"/>
  <path class="fil0" d="M2279 286l75 30c0,0 1,5 -1,10 -2,5 -6,6 -6,6l-75 -30c0,0 -3,-6 -1,-11 2,-5 8,-6 8,-6z"/>
  <path class="fil0" d="M1631 130c0,0 12,0 19,4 9,5 5,31 -6,25 -5,-3 -49,-28 -49,-28l9 -16c0,0 17,11 26,16z"/>
  <path class="fil0" d="M1703 160c7,0 14,5 14,13 0,7 -5,12 -12,12 -7,0 -15,-5 -15,-12 0,-7 5,-13 12,-13z"/>
  <path class="fil0" d="M1771 193c3,0 14,1 14,12 0,10 -11,12 -14,12 -3,0 -14,-1 -14,-12 0,-10 11,-12 14,-12z"/>
  <path class="fil0" d="M1847 225c7,0 8,4 8,11 0,7 -3,12 -9,12 -7,0 -14,-5 -14,-12 0,-7 9,-11 15,-11z"/>
  <path class="fil0" d="M1907 257c8,0 16,4 16,12 0,8 -9,12 -17,12 -8,0 -11,-5 -11,-12 0,-8 4,-12 12,-12z"/>
  <path class="fil0" d="M1968 280c8,0 14,3 14,11 0,8 -6,11 -14,11 -8,0 -14,-4 -14,-11 0,-8 6,-11 14,-11z"/>
  <path class="fil0" d="M2035 305c7,0 13,3 13,10 0,7 -3,12 -9,12 -7,0 -15,-5 -15,-12 0,-7 4,-10 11,-10z"/>
  <path class="fil0" d="M2099 324c7,0 10,5 10,12 0,7 -6,10 -13,10 -7,0 -12,-3 -12,-10 0,-7 8,-12 15,-12z"/>
  <path class="fil0" d="M2285 439c4,2 12,6 18,10l12 7c0,0 3,6 -1,11 -3,5 -9,4 -9,4l-11 -7c-6,-4 -13,-7 -15,-8 0,0 -2,-6 0,-12 2,-5 7,-5 7,-5z"/>
  <path class="fil0" d="M2343 471c4,2 12,6 18,9l12 7c0,0 3,6 -1,11 -3,5 -9,4 -9,4l-11 -7c-6,-4 -13,-7 -15,-8 0,0 -2,-6 0,-12 2,-5 6,-5 6,-5z"/>
  <path class="fil0" d="M2488 524c4,2 12,6 18,10l12 7c0,0 3,6 -1,11 -3,5 -9,4 -9,4l-11 -7c-6,-4 -13,-7 -15,-8 0,0 -2,-6 0,-12 2,-5 7,-5 7,-5z"/>
  <path class="fil0" d="M2561 559c4,2 12,6 18,10l12 7c0,0 3,6 -1,11 -3,5 -9,4 -9,4l-11 -7c-6,-4 -13,-7 -15,-8 0,0 -2,-6 0,-12 2,-5 6,-5 6,-5z"/>
  <path class="fil0" d="M2631 589c4,1 12,5 18,9l12 6c0,0 3,6 0,11 -3,5 -9,5 -9,5l-12 -6c-7,-3 -13,-7 -15,-7 0,0 -3,-6 0,-12 2,-5 6,-6 6,-6z"/>
  <path class="fil0" d="M2704 620c4,1 12,5 18,9l12 6c0,0 3,6 0,11 -3,5 -9,5 -9,5l-12 -6c-7,-3 -13,-7 -15,-7 0,0 -3,-6 0,-12 2,-5 6,-6 6,-6z"/>
  <path class="fil0" d="M2769 646c4,1 12,5 18,9l12 6c0,0 3,6 0,11 -3,5 -9,5 -9,5l-12 -6c-7,-3 -13,-7 -15,-7 0,0 -3,-6 0,-12 2,-5 6,-6 6,-6z"/>
  <path class="fil8" d="M12 3026l48 0 0 225c4,-7 8,-13 10,-17 3,-4 5,-8 8,-11 12,-14 26,-24 41,-31 15,-7 29,-11 41,-13 13,-2 22,-3 28,-2 6,0 15,1 28,3 13,2 27,6 43,13 13,6 27,17 40,31 14,14 25,33 34,57 9,24 14,53 15,88 0,20 -2,36 -4,50 -3,13 -6,24 -8,31 -13,35 -33,63 -62,85 -28,22 -61,33 -98,34 -6,0 -16,-1 -29,-3 -13,-2 -27,-7 -42,-15 -11,-6 -20,-14 -27,-22 -7,-8 -14,-17 -21,-27l-3 59 -49 0c2,-30 4,-60 4,-89l0 -79c0,-53 1,-106 1,-160 1,-69 1,-138 2,-208zm46 354c1,39 6,69 17,90 10,22 23,37 39,47 19,12 40,18 63,18 17,0 32,-3 43,-9 11,-5 19,-10 24,-15 15,-11 28,-28 38,-51 11,-23 16,-54 17,-94 0,-18 -1,-33 -3,-44 -2,-11 -4,-21 -7,-28 -8,-25 -22,-45 -41,-61 -19,-16 -42,-24 -69,-24 -11,-1 -26,2 -44,9 -18,7 -34,22 -50,45 -8,11 -14,25 -19,43 -5,18 -8,42 -7,72z"/>
  <path class="fil9" d="M483 3188l0 60c8,-11 16,-21 25,-30 9,-9 19,-17 30,-23 15,-7 30,-10 45,-10 14,0 24,1 30,2l0 44c-7,-1 -18,-2 -34,-2 -16,0 -32,4 -48,12 -17,8 -30,24 -39,48 -2,6 -4,13 -5,21 -1,7 -2,18 -3,31l0 219 -48 0 0 -371 48 0z"/>
  <path class="fil8" d="M672 3188l50 0 0 373 -50 0 0 -373zm0 -161l50 0 0 54 -50 0 0 -54z"/>
  <path class="fil8" d="M1105 3253l0 -65 45 0 0 257c1,30 0,60 -1,89 -1,18 -2,35 -4,53 -1,15 -4,27 -7,39 -4,11 -10,23 -20,35 -15,17 -32,30 -51,38 -19,8 -36,12 -53,14 -16,2 -28,2 -35,2 -5,0 -14,0 -27,-1 -13,-1 -26,-4 -42,-9 -15,-5 -30,-13 -44,-24 -14,-13 -23,-24 -25,-31 -5,-13 -8,-27 -8,-41l48 0c1,6 3,14 7,26 4,11 13,21 26,31 14,7 28,12 42,13 15,2 24,2 27,2 28,0 50,-5 66,-14 16,-9 27,-18 33,-29 4,-6 7,-13 9,-21 2,-8 5,-19 8,-34l3 -87c-7,10 -15,19 -22,27 -7,8 -16,16 -26,23 -16,10 -32,16 -46,18 -15,3 -26,4 -33,3 -8,0 -20,-1 -36,-4 -16,-3 -33,-10 -51,-21 -12,-7 -23,-17 -35,-30 -12,-13 -21,-31 -29,-52 -8,-21 -12,-48 -12,-80 0,-11 1,-26 4,-46 3,-20 11,-42 23,-65 12,-23 32,-43 58,-61 7,-5 17,-10 32,-16 15,-6 32,-9 53,-9 18,0 36,3 52,10 17,6 32,16 45,29 10,11 18,23 25,34zm-246 115c-1,13 0,25 1,35 1,10 2,17 4,22 7,30 21,55 42,74 20,19 47,29 79,30 24,-1 42,-6 57,-15 14,-9 24,-17 30,-24 18,-22 28,-44 32,-66 4,-22 5,-37 4,-47 0,-8 0,-21 -2,-40 -3,-26 -10,-46 -18,-60 -9,-15 -18,-26 -27,-33 -5,-5 -14,-11 -25,-17 -11,-6 -26,-9 -44,-10 -5,0 -13,1 -21,2 -9,2 -19,5 -31,10 -24,12 -41,27 -53,46 -11,19 -19,37 -22,55 -3,18 -5,31 -5,39z"/>
  <path class="fil9" d="M1312 3024l0 216c7,-7 14,-15 21,-22 7,-8 19,-16 34,-26 16,-10 38,-15 65,-16 26,0 50,7 72,19 22,13 38,30 49,53 4,12 7,23 9,34 1,11 2,18 2,22l0 256 -50 0 2 -257c0,-2 -1,-6 -2,-14 -1,-8 -3,-15 -5,-21 -7,-18 -18,-32 -33,-41 -15,-9 -32,-14 -52,-14 -6,0 -15,1 -26,3 -11,2 -22,7 -34,14 -12,7 -22,18 -31,33 -9,17 -15,35 -18,55 -3,20 -4,39 -4,59l0 183 -50 0 0 -535 51 0z"/>
  <path class="fil9" d="M1624 3187l71 0 0 -80 49 -23 0 104 80 0 0 33 -80 0 0 255c-1,7 0,14 0,20 1,6 3,13 7,18 5,7 11,12 17,13 6,1 11,2 14,2 9,0 18,-1 27,-3 9,-2 14,-2 15,-3l0 39c-14,2 -25,3 -32,4 -8,1 -15,1 -23,1 -5,0 -13,0 -24,-2 -11,-2 -21,-8 -32,-17 -8,-9 -13,-19 -16,-28 -2,-10 -4,-20 -4,-32l0 -267 -71 0 0 -33z"/>
  <path class="fil9" d="M2334 3189l65 0 99 330 109 -331 49 0 -135 374 -49 0c-21,-61 -42,-122 -62,-183 -11,-34 -22,-69 -32,-104 -5,-18 -10,-37 -15,-55 -18,62 -38,124 -58,186 -18,52 -36,104 -54,155l-52 0 -125 -373 50 0c22,63 42,126 62,189 15,49 29,98 43,147 11,-42 24,-84 37,-125 13,-40 27,-80 40,-121 10,-30 19,-60 28,-89z"/>
  <path class="fil8" d="M2708 3368c0,-10 1,-25 5,-46 4,-21 12,-44 25,-67 13,-23 34,-43 62,-59 6,-3 16,-7 30,-12 14,-4 30,-7 49,-7 7,0 18,1 31,3 14,2 29,7 45,15 16,7 31,19 46,34 10,10 21,27 32,50 11,23 16,54 17,91 -1,41 -8,75 -21,101 -13,26 -26,45 -38,56 -15,14 -32,25 -52,32 -20,7 -40,11 -61,11 -45,0 -83,-16 -115,-49 -17,-19 -30,-38 -38,-58 -8,-20 -13,-39 -15,-56 -2,-17 -3,-30 -3,-38zm45 -8c-2,28 2,54 9,79 8,25 22,47 44,66 15,12 29,20 42,24 13,4 24,5 32,5 38,-1 68,-17 90,-47 15,-24 25,-47 28,-69 3,-22 4,-38 4,-47 0,-8 0,-19 -2,-34 -2,-15 -6,-32 -14,-49 -7,-18 -20,-34 -37,-49 -6,-5 -14,-10 -25,-16 -11,-5 -26,-8 -44,-9 -17,0 -35,4 -54,12 -19,9 -35,24 -49,45 -14,22 -22,52 -25,90z"/>
  <path class="fil9" d="M3188 3188l0 60c8,-11 16,-21 25,-30 9,-9 19,-17 30,-23 15,-7 30,-10 45,-10 14,0 24,1 30,2l0 44c-7,-1 -18,-2 -34,-2 -16,0 -32,4 -48,12 -17,8 -30,24 -39,48 -2,6 -4,13 -5,21 -1,7 -2,18 -3,31l0 219 -48 0 0 -371 48 0z"/>
  <polygon class="fil9" points="3377,3560 3428,3560 3428,3025 3377,3025 "/>
  <path class="fil8" d="M3811 3249l0 -223 47 0 0 534 -47 0 -1 -63c-6,8 -12,16 -19,23 -8,11 -21,22 -38,33 -17,11 -42,18 -75,19 -34,1 -65,-9 -92,-31 -10,-8 -19,-19 -30,-33 -10,-14 -19,-33 -27,-55 -7,-22 -11,-48 -12,-78 -1,-12 1,-29 5,-53 4,-24 15,-49 32,-75 15,-22 34,-39 56,-51 22,-12 46,-19 72,-19 9,-1 24,2 43,6 19,5 39,16 59,33 9,10 18,20 25,32zm-244 126c0,37 5,66 16,89 11,22 23,38 36,48 5,5 14,10 26,16 12,6 27,9 45,9 7,0 17,-1 28,-4 12,-3 24,-10 38,-22 18,-17 31,-35 38,-55 8,-20 12,-38 14,-55 1,-17 2,-29 2,-36 0,-17 -1,-34 -5,-49 -3,-16 -9,-31 -18,-46 -3,-6 -9,-13 -17,-22 -8,-9 -18,-17 -32,-24 -13,-7 -29,-11 -48,-11 -34,1 -62,15 -83,42 -14,17 -24,36 -30,57 -6,20 -9,42 -9,64z"/>
 </g>
</svg>
